<svg aria-hidden="true" xmlns="http://www.w3.org/2000/svg" viewBox="0 0 369 123" width="492" height="164"><path d="M0 0h123v123H0V0z" fill="currentColor"/><path d="M123 0h123.05c-.14 8.33.02 16.67-.08 25-.05 2.92.06 5.8.61 8.68-.1 1.08-.21 2.16-.28 3.25-.62 16.65-.08 33.4-.27 50.07-.07 12 0 24-.03 36H123V0z" fill="#fff"/><path d="M246.05 0H369v9.47c-.89.03-1.78.06-2.67.08-.3 6.37-.12 12.76-.14 19.14-4.61-2.22-8.62-.33-11.87-4.36.41-1.24.83-2.48 1.25-3.72l2.31-.9c1.31.29 2.62.57 3.94.83-.04-3.78-2.83-3.31-5.66-3.09-4.37 1.43-5.3 7.4-2.04 10.42 2.53 2.52 7.07 1.18 10.05 2.91 2.64 1.75 3.2 5.98.64 8.07-2.19 1.87-4.4 1.41-7.05 1.54-2.23-3.49-4.2-7.12-6.63-10.48-1.72-2.36-2.75-4.96-2.46-7.93.5-5.56 3.65-9.21 6.98-13.35l-1.87-1.01c-3.44 2.38-5.95 5.39-10.06 6.87-3.63 1.53-7.25 1.24-10.82-.26l3.12-2.43c2.63.63 5.24 1.31 7.79-.02 2.7-1.22 4.44-3.72 6.11-6.06l-1-.76-2.25-1.69c3.05.03 6.09.02 9.14-.03-.06 1.32-.12 2.65-.16 3.98l1.84-1.3c1.12 2.01.8 3.08.23 5.2.35.98.7 1.96 1.08 2.93 1.82 1.54 3.37 1.53 5.64 1.53-.12-2.87.13-4.87-2.46-6.65-2.95-1.17-4.32-3.54-6.01-6.04l2.37-.97C354.61-.03 351.08.85 347 .66c-3.09.17-5.78-.71-8.31 1.57l1.35.41c1.83.6 3.68.7 5.59.96l-1.45 1.2c-2.17 1.42-4.3 2.9-6.48 4.32-.29-2.86.16-5.38-2.28-7.42-1.19-1.3-2.61-1.3-4.29-.03 1.01.78 2.03 1.55 3.04 2.32.43 1.04.86 2.07 1.3 3.1-.85 1.41-1.58 3.33-2.92 4.33-2.2.48-5.16.79-6.52-1.44-2.7-3.38-4.33-7.17-9.02-8.15-3.54-.8-5.86 1.03-9.04 2.02-3.22-.71-5.44-2.8-9.01-2.08-5.28.81-7.36 5.94-10.46 9.62-1.19.19-2.38.38-3.57.59-1.06-.42-2.45-.71-3.25-1.55-1.17-1.5-1.02-3.08-1.25-4.87 1.11-1.13 2.23-2.26 3.31-3.44l-.4-1.87c-4.76 1.26-5.11 4.74-5.96 8.92-2.11-1.41-4.12-3.02-6.32-4.29-1.89-1.15-3.86-.44-5.9-.22 1.19 3.34 3.48 6.1 6.81 7.43 2.54.95 4.82.26 7.3-.45.97.86 1.95 1.72 2.92 2.58-3.54 1.61-7.27 1.77-10.87.22-4.42-1.61-6.95-5.29-11.1-7.27-.06 3.46 2.37 4.95 3.91 7.69 2.07 3.39 3.05 7.62 1.87 11.49-1.19 3.03-3.66 5.53-5.24 8.4-1.13 1.78-2.03 4.17-3.73 5.45-3 .48-5.94.19-7.76-2.49-1.56-2.47-.4-5.97 2.17-7.23 2.56-1.07 5.73-.51 8.21-1.71 3.86-1.71 4.33-8 .93-10.37-1.99-1.89-4.87-.9-7.19-.36l.3 2.62c1.21-.37 2.41-.75 3.61-1.14 2.55 1.58 2.95 2.04 3.41 5.05-3.25 3.4-6.99 2.26-11.14 3.69.04-6.01.05-12.03-.02-18.04l-2.42-.12c-.37 7.83.48 15.82-.55 23.58-.55-2.88-.66-5.76-.61-8.68.1-8.33-.06-16.67.08-25z" fill="#fefefe"/><path d="M247.16.86c3.27-.15 6.67-.46 9.93-.02.48.39.69 1.04.64 1.94-2.48.8-5.4.45-7.99.47-.07 1.37-.15 2.73-.23 4.09-.72.06-1.44.12-2.15.17-.13-2.22-.19-4.43-.2-6.65zM259.68.89c5.76-.22 11.69-.36 17.43.2-.35.69-.72 1.37-1.11 2.03-5.59.52-11.29.16-16.89.11l.57-2.34z" fill="#020202"/><path d="m283.34.25.4 1.87c-1.08 1.18-2.2 2.31-3.31 3.44.23 1.79.08 3.37 1.25 4.87.8.84 2.19 1.13 3.25 1.55 1.19-.21 2.38-.4 3.57-.59 3.1-3.68 5.18-8.81 10.46-9.62 3.57-.72 5.79 1.37 9.01 2.08 3.18-.99 5.5-2.82 9.04-2.02 4.69.98 6.32 4.77 9.02 8.15 1.36 2.23 4.32 1.92 6.52 1.44 1.34-1 2.07-2.92 2.92-4.33-.44-1.03-.87-2.06-1.3-3.1-1.01-.77-2.03-1.54-3.04-2.32 1.68-1.27 3.1-1.27 4.29.03 2.44 2.04 1.99 4.56 2.28 7.42 2.18-1.42 4.31-2.9 6.48-4.32 1.61.01 3.13.06 4.74.16l1 .76c-1.67 2.34-3.41 4.84-6.11 6.06-2.55 1.33-5.16.65-7.79.02l-3.12 2.43c3.57 1.5 7.19 1.79 10.82.26 4.11-1.48 6.62-4.49 10.06-6.87l1.87 1.01c-3.33 4.14-6.48 7.79-6.98 13.35-.29 2.97.74 5.57 2.46 7.93 2.43 3.36 4.4 6.99 6.63 10.48 2.65-.13 4.86.33 7.05-1.54 2.56-2.09 2-6.32-.64-8.07-2.98-1.73-7.52-.39-10.05-2.91-3.26-3.02-2.33-8.99 2.04-10.42 2.83-.22 5.62-.69 5.66 3.09-1.32-.26-2.63-.54-3.94-.83l-2.31.9c-.42 1.24-.84 2.48-1.25 3.72 3.25 4.03 7.26 2.14 11.87 4.36.02-6.38-.16-12.77.14-19.14.89-.02 1.78-.05 2.67-.08v.32l-.43.34-.5.47c-.34 5.46 0 10.93-.19 16.4-.12 2.48.32 4.63 1.12 6.96v2.79c-.86 2.39-2.27 4.47-4.72 5.41-1.98.57-4.04.87-6.05 1.27l1.68 3.46 1.06-.36-.24 1.2-.27 1.16c1.84 8.64 1.84 17.61-.25 26.21-.33 1.04-.66 2.07-.97 3.11-4.82 14.15-15.81 25.82-29.42 31.87 2.81.78 5.46 1.32 7.68 3.35 2 1.68 3 3.84 4.14 6.11.64.08 1.29.16 1.93.25.19-1.76-.09-3.69 1.05-5.12 1.22-1.57 2.84-1.19 4.61-1.58.61-4.53 1.79-6.4 5.97-8.28-.67-1.11-1.33-2.23-1.99-3.35 1.27.08 2.53.18 3.79.31l-1.85 1.28c.59.58 1.17 1.16 1.76 1.74 3.48-1.1 7.02-1.24 8.72-4.97 1.83-3.58-1.1-6.25-1.24-10.09-2.15-.43-5.89 1.05-6.26-2.11 3.36-.24 6.82-.42 10.18-.1l.68 1.82c-.97.16-1.93.32-2.9.47 1.51 2.69 3.1 4.94 2.67 8.21-.29 3.12-2.12 5.13-4.3 7.15 3.74 3.2 4.54 6.53 4.02 11.37-2.82-1.54-6.29-2.22-8.85-4.12-1.83-1.44-1.07-3.36-1.36-5.43 1.73.9 2.51 2.5 3.74 3.88 1.2.76 2.61 1.22 3.93 1.76-.6-2.74-1.3-4.85-4.27-5.7-3.38-.73-9.72.49-9.49 5.06-.2 2.62 1.54 4.21 3.67 5.33 1.93-.23 3.84-.81 5.74-1.25-.03.72-.05 1.44-.08 2.16-.88.41-1.75.82-2.62 1.23 2.74.12 5.48.1 8.21.24 1.42-.27 1.83.54 1.24 2.41-6.76.34-13.57.02-20.34.13-3.96-.11-7.46.54-11.23-.91.69-.76 1.37-1.52 2.06-2.27-1.92-2.4-3.45-4.69-6.56-5.66-5.12-2.12-11.16 1.06-13.38 5.94.7-.02 1.39-.04 2.09-.07 2.06-2.41 3.42-4.5 7.02-4.1 4.04-.21 6.29 2.64 6.89 6.32-.76.11-1.52.21-2.27.31-.49-1.05-.97-2.1-1.45-3.15-1.06-.42-2.06-.86-3.16-1.14-1.41.01-2.8.97-4.08 1.52 2.44.74 5.2-.87 5.09 2.72-4.35.13-8.69.16-13.04-.06.11-3.6 1.84-5.78 4.06-8.38-2.17.37-4.45.69-6.53 1.41-1.92 2.63-3.65 5.44-5.25 8.28h-.77c-1.61-2.89-3.55-5.55-5.26-8.37-2.21-.39-4.4-.86-6.59-1.34 1.74 2.27 4.44 5.17 4.05 8.28-3.51.53-7.2.37-10.7-.12.66-.96 1.33-1.92 2.01-2.88-1.97-.58-3.8-1.88-5.65-.24-1.37 1.05-2.4 3.92-4.41 3.14-.01-5.63 6.43-8.03 10.73-5.21 1.08.95 1.98 2.03 2.93 3.11l2.32-.15c-2.48-3.64-5.35-6.28-9.97-6.54-3.73.18-8.71 2.53-9.68 6.45l1.09 2.58c-4.61.92-9.6.45-14.36.53-5.44-.09-10.91.2-16.33-.14l-.12-2.24c2.8-.41 5.78-.22 8.59-.19-.94-1.12-1.74-2.31-2.39-3.56 2.32.14 5.59 2 7.56.38 2.69-1.59 3.11-5.54.91-7.72-2.1-2.22-6.32-1.69-9.06-1.41-2.48.58-2.79 3.15-3.34 5.21 1.16-.46 2.36-.92 3.48-1.5 1.57-1.42 2.05-3.29 4.37-3.74-.34 1.85 0 3.47-1.54 4.81-2.36 2.19-5.99 2.72-8.73 4.49-.91-4.77-.01-8.37 3.72-11.54-4.46-3.63-6.06-10.2-1.37-14.39-1.61-.64-2.74-1.67-3.38-3.06 3.32.09 9.43-1.55 11.57 1.6-2.12.3-4.21.47-6.34.55-.74 3.5-3.5 7.33-1.11 10.72 1.97 3.34 5.74 3.34 9.09 4.43.07-1.33.14-2.65.2-3.98 2.97.56 1.52 2.02 1.73 4.22 3.61 1.89 4.44 4.1 5.06 7.92 1.21.35 3.19.22 4.04 1.27 1.43 1.22 1.31 3.74 1.72 5.48.57-.14 1.14-.27 1.71-.41 2.57-5.67 6-8.51 12.27-9.32-13.52-5.53-24.5-17.37-29.51-31.05-1.8-5.54-2.88-11.25-3.09-17.07-.12-4.54.81-9.17 1.26-13.7-1-.07-2-.16-3-.24l2.99-.2.39-.05c.51-1.65.97-3.31 1.42-4.98-2.71-.27-5.69.28-7.83-1.72-1.45-1.07-1.97-2.58-2.64-4.18.07-1.09.18-2.17.28-3.25 1.03-7.76.18-15.75.55-23.58l2.42.12c.07 6.01.06 12.03.02 18.04 4.15-1.43 7.89-.29 11.14-3.69-.46-3.01-.86-3.47-3.41-5.05-1.2.39-2.4.77-3.61 1.14l-.3-2.62c2.32-.54 5.2-1.53 7.19.36 3.4 2.37 2.93 8.66-.93 10.37-2.48 1.2-5.65.64-8.21 1.71-2.57 1.26-3.73 4.76-2.17 7.23 1.82 2.68 4.76 2.97 7.76 2.49 1.7-1.28 2.6-3.67 3.73-5.45 1.58-2.87 4.05-5.37 5.24-8.4 1.18-3.87.2-8.1-1.87-11.49-1.54-2.74-3.97-4.23-3.91-7.69 4.15 1.98 6.68 5.66 11.1 7.27 3.6 1.55 7.33 1.39 10.87-.22-.97-.86-1.95-1.72-2.92-2.58-2.48.71-4.76 1.4-7.3.45-3.33-1.33-5.62-4.09-6.81-7.43 2.04-.22 4.01-.93 5.9.22 2.2 1.27 4.21 2.88 6.32 4.29.85-4.18 1.2-7.66 5.96-8.92z" fill="#020202"/><path d="M347 .66c4.08.19 7.61-.69 11.34 1.26l-2.37.97c-5.32-.28-10.62-.19-15.93-.25l-1.35-.41c2.53-2.28 5.22-1.4 8.31-1.57zM358.12.77c3.5-.12 7-.11 10.5-.03-.22 2.4 1.23 6.43-2 7.23-.21-1.57-.41-3.14-.58-4.71-2.42.01-4.91.07-7.31-.16l-.61-2.33z" fill="#020202"/><path d="M340.04 2.64c5.31.06 10.61-.03 15.93.25 1.69 2.5 3.06 4.87 6.01 6.04-.94.06-1.89.12-2.83.19-.12 1.64-.24 3.28-.35 4.93-.38-.97-.73-1.95-1.08-2.93.57-2.12.89-3.19-.23-5.2l-1.84 1.3c.04-1.33.1-2.66.16-3.98-3.05.05-6.09.06-9.14.03l2.25 1.69c-1.61-.1-3.13-.15-4.74-.16l1.45-1.2c-1.91-.26-3.76-.36-5.59-.96z" fill="currentColor"/><path d="M259.47 4.06c.04.86.07 1.71.11 2.56-.85-.03-1.7-.07-2.55-.1.57-1.83.62-1.87 2.44-2.46zM289.33 5.86c.42 2.76-1.59 3.44-3.32 5-1.84-1.65-4.78-2.8-2.93-5.73 1.8-2.52 4.97-1.97 6.25.73z" fill="#020202"/><path d="M304.62 5.12c-.05.74-.11 1.48-.16 2.22-3.89.48-7.69 1.33-11.49 2.25 1.35-1.69 2.83-3.87 4.81-4.83 2.41-1.01 4.47-.22 6.84.36zM318.14 4.93c2.1.97 2.98 2.74 4.06 4.64-3.62-1.01-7.24-1.85-10.99-2.24.06-.77.13-1.55.21-2.32 2.32-.63 4.43-1.26 6.72-.08z" fill="#fefefe"/><path d="M330.02 3.57c3.14.07 3.39 2.15 3.69 4.69-1.2.79-2.4 1.56-3.62 2.33-.82-.45-1.64-.9-2.46-1.34-.37-.79-.73-1.58-1.09-2.37.75-1.45 1.46-3.56 3.48-3.31z" fill="#020202"/><path d="M272.34 7.69c.31.69.42 1.35.34 1.99-1.07.43-2.92-1-3.44-1.9-.1-1.13 2.56-.25 3.1-.09z" fill="#fefefe"/><path d="M345.6 7.12c.64 1.27-2.28 3.42-3.38 2.58-.78-1.46 2.14-3.39 3.38-2.58z" fill="currentColor"/><path d="M252.79 9.81c1.37-1.48 3.05-1.32 4.9-1.76-.22 1.97.67 5.14-1.19 6.46-1.18 1.35-3.32.9-4.97 1.1.2-2.15-.27-4.05 1.26-5.8z" fill="#020202"/><path d="m306.11 8.89 3.17-.42c1.23 3.73 1.76 7.03 1.44 10.96-2.82.71-4.22 1.7-6.16-1.18-.22-3.06.92-6.36 1.55-9.36z" fill="#fefefe"/><path d="M359.15 9.12c.94-.07 1.89-.13 2.83-.19 2.59 1.78 2.34 3.78 2.46 6.65-2.27 0-3.82.01-5.64-1.53.11-1.65.23-3.29.35-4.93z" fill="#020202"/><path d="M302.88 10.2c-.2 1.66-.41 3.31-.63 4.96-7.96 1.22-14.88 3.88-21.46 8.55-1.58-.06-3.16-.1-4.74-.12-2.03-2.35-4.05-4.73-6.18-6.99 3.53 1.17 6.68 2.36 10.39 1.05 4.91-1.76 9.5-4.28 14.53-5.78 2.65-.79 5.35-1.3 8.09-1.67zM312.49 10.33c4.71.1 9.28 1.7 13.62 3.43 3.89 1.52 6.87 3.72 10.86 4.37 2.71.46 5.67-.68 8.22-1.54-1.97 2.19-3.84 4.47-5.81 6.66-1.54.05-3.09.11-4.64.2-6.7-4.46-13.12-7.02-21.1-8.25-.39-1.62-.85-3.23-1.15-4.87z" fill="#fefefe"/><path d="m368.57 10.13.43-.34v24.17c-.8-2.33-1.24-4.48-1.12-6.96.19-5.47-.15-10.94.19-16.4l.5-.47z" fill="currentColor"/><path d="M301.88 18.22c1.28 2.66 2.55 3.67 5.06 5.06-5.4.63-10.61 1.52-15.51 4-3.17 1.5-5.48 3.74-8.88 4.7-.03-2.13-.01-4.26-.03-6.39 5.64-3.64 12.53-7.2 19.36-7.37z" fill="#fefefe"/><path d="M314.24 18.32c6.33.01 13.04 3.52 18.31 6.84.25 1.7.54 3.4.84 5.09-3.58 4.03-7.27 7.82-10.41 12.23.9.15 1.79.22 2.68.21 3.25-3.24 6.18-6.84 9.21-10.29 1.54-.26 3.09-.53 4.63-.82 6.09 5.62 10.88 15.39 11.37 23.66-1.84 1.48-3.43 3.19-4.99 4.95-.84-9.03-3.69-17.54-9.99-24.24l-2.67-.62c.79 1.95 1.8 3.61 3.07 5.27 3.92 5.19 6.18 11.43 6.67 17.9-2.96-3.2-6.07-6.24-9.09-9.37-2.06-1.89-3.11-4.17-6.34-3.73 3.59 6.23 10.33 10.38 14.54 16.24-4.91 4.57-9.5 9.43-14.25 14.17-6.57 6.66-13.38 13.07-19.89 19.79-10.8-10.36-21.23-21.13-31.88-31.66-.77-.86-1.81-1.7-2.02-2.88 4.3-4.75 9.05-9.16 13.53-13.75-.06-.77-.12-1.54-.19-2.31-1.22.54-2.4 1.01-3.34 2-3.76 3.74-7.31 7.66-11.28 11.19.83-8.3 4.46-16.03 10.32-21.95 2.6 1.87 4.63 4.64 6.81 6.98.47.02.95.03 1.42.05l.27-1.91c-1.81-2.16-3.83-4.21-5.44-6.54l.27-1.38c5.29-4.22 11.91-6.57 18.6-7.31-2.79 2.83-5.66 5.58-8.49 8.38-1.43 1.29-1.83 2.34-2.26 4.24 1.74-.51 2.93-1.05 4.18-2.33 3.2-3.11 6.28-6.34 9.54-9.38 4.05 3.96 7.92 8.17 12.18 11.89.27-.92.53-1.84.78-2.76-3.46-3.23-6.81-6.59-10.11-9.99 7.14.39 12.69 3.74 18.97 6.64l-.55-2.71c-6.06-4.23-13.01-6.12-20.3-6.81 2.39-1.38 3.53-3.08 5.3-4.98zM268.77 19.24c1.87 2.08 3.7 4.2 5.58 6.29-.54 2.22-.24 4.32-1.8 5.99-5.68 6.74-9.51 14.89-10.43 23.7-1.88.59-3.76 1.21-5.65 1.78.69-7.64 2.74-15.03 6.86-21.54 1.57-2.63 3.92-5.1 4.98-7.95.99-2.8.61-5.4.46-8.27z" fill="#fefefe"/><path d="M346.34 19.18c-.15 2.67-.49 5.49.42 8.07 1.01 2.9 3.33 5.46 4.93 8.12 3.99 6.45 6.86 13.86 7.26 21.5-1.71-.55-3.41-1.11-5.12-1.66-1.61-10.06-5.35-17.84-12.08-25.46-.11-1.59-.25-3.19-.42-4.78 1.69-1.92 3.36-3.84 5.01-5.79zM278.93 25.88c.59.79 1.19 1.57 1.79 2.35-1.61 1.43-2.03 1.64-4.25 1.38-.02-.96-.01-1.93.03-2.89.81-.29 1.61-.57 2.43-.84zM335.15 26.34c1.55-.17 2.98-.14 4.52.07-.49 1.17-1 2.34-1.52 3.49-.79-.26-1.58-.54-2.37-.83-.22-.9-.43-1.81-.63-2.73z" fill="#fefefe"/><path d="M254.16 31.51c2.73-.4 3.09 1.78 4.62 3.47-.79 1.15-1.55 2.4-2.48 3.43-1.18.22-2.38.23-3.56 0-2.66-1.5-2.21-7.09 1.42-6.9z" fill="#020202"/><path d="M275.24 32.43c1.78-.1 3.57.02 5.34.06l1.08 1.53c-7.2 7.05-11.17 16.19-11.68 26.25-1.53-2.33-2.94-3.92-5.39-5.33 1.5-8.4 4.77-16.24 10.65-22.51z" fill="#fefefe"/><path d="M363.14 31.63c1.69 2.86 1.31 4 .12 6.93-2.29.04-3.87-.06-5.83-1.34-.03-1.49 0-2.97.07-4.44 1.95-1.22 3.37-1.33 5.64-1.15z" fill="#020202"/><path d="m255.11 33.4.65 1.71c-.05 2.05-2.47 1.93-2.49-.05.22-.98.83-1.53 1.84-1.66zM361.2 33.35c.86 1.14.85 2.26 0 3.36-1.07-.17-1.68-.73-1.82-1.68.18-.94.79-1.5 1.82-1.68z" fill="#fefefe"/><path d="M278.37 33.89c-1.31 3.9-4.28 6.61-5.96 10.34-1.54 3.05-2.02 6.27-3 9.49-1.57.7-2.24.15-2.02-1.66.66-5.66 3.41-11.17 6.83-15.68.97-1.48 2.36-2.31 4.15-2.49zM337.61 33.77c1.39.43 2.62 1.08 3.68 1.97 3.81 5.26 6.77 10.84 7.37 17.42-.69.38-1.39.75-2.1 1.1-.9-3.88-1.71-7.63-3.66-11.16-1.71-3.3-4.26-5.66-5.29-9.33z" fill="#020202"/><path d="M246.3 36.93c.67 1.6 1.19 3.11 2.64 4.18 2.14 2 5.12 1.45 7.83 1.72-.45 1.67-.91 3.33-1.42 4.98l-.39.05c-.72-2.72-5.46-2.94-7.8-3.91-.36 4.99-.12 10.05-.2 15.05.05 3.61-.42 6.84.89 10.3a8.77 8.77 0 0 0 1.53-2.45c.29-6.33.02-12.71.09-19.04l2.5.25c1 .08 2 .17 3 .24-.45 4.53-1.38 9.16-1.26 13.7.21 5.82 1.29 11.53 3.09 17.07 5.01 13.68 15.99 25.52 29.51 31.05-6.27.81-9.7 3.65-12.27 9.32-.57.14-1.14.27-1.71.41-.41-1.74-.29-4.26-1.72-5.48-.85-1.05-2.83-.92-4.04-1.27-.62-3.82-1.45-6.03-5.06-7.92-.21-2.2 1.24-3.66-1.73-4.22-.06 1.33-.13 2.65-.2 3.98-3.35-1.09-7.12-1.09-9.09-4.43-2.39-3.39.37-7.22 1.11-10.72 2.13-.08 4.22-.25 6.34-.55-2.14-3.15-8.25-1.51-11.57-1.6.64 1.39 1.77 2.42 3.38 3.06-4.69 4.19-3.09 10.76 1.37 14.39-3.73 3.17-4.63 6.77-3.72 11.54 2.74-1.77 6.37-2.3 8.73-4.49 1.54-1.34 1.2-2.96 1.54-4.81-2.32.45-2.8 2.32-4.37 3.74-1.12.58-2.32 1.04-3.48 1.5.55-2.06.86-4.63 3.34-5.21 2.74-.28 6.96-.81 9.06 1.41 2.2 2.18 1.78 6.13-.91 7.72-1.97 1.62-5.24-.24-7.56-.38.65 1.25 1.45 2.44 2.39 3.56-2.81-.03-5.79-.22-8.59.19l.12 2.24c5.42.34 10.89.05 16.33.14 4.76-.08 9.75.39 14.36-.53l-1.09-2.58c.97-3.92 5.95-6.27 9.68-6.45 4.62.26 7.49 2.9 9.97 6.54l-2.32.15c-.95-1.08-1.85-2.16-2.93-3.11-4.3-2.82-10.74-.42-10.73 5.21 2.01.78 3.04-2.09 4.41-3.14 1.85-1.64 3.68-.34 5.65.24-.68.96-1.35 1.92-2.01 2.88 3.5.49 7.19.65 10.7.12.39-3.11-2.31-6.01-4.05-8.28 2.19.48 4.38.95 6.59 1.34 1.71 2.82 3.65 5.48 5.26 8.37H246c.03-12-.04-24 .03-36 .19-16.67-.35-33.42.27-50.07zM369 36.75v8.01l-1.39-.86c-2.26.7-4.45 1.74-6.64 2.63l-1.06.36-1.68-3.46c2.01-.4 4.07-.7 6.05-1.27 2.45-.94 3.86-3.02 4.72-5.41zM40.29 41.43c1.76 4.2 3.49 8.42 5.19 12.64.97-1.55 1.92-3.13 3-4.61 4.71-6.37 13.47-9.48 21.07-7 3.65 1.03 6.41 3.25 9.24 5.65.04-2.21.09-4.42.16-6.63 8.28.06 16.56.04 24.85.01.03 3.03.04 6.06.03 9.1-5.18-.02-10.36.04-15.54-.13-.36 2.35-.53 4.72-.57 7.1 5.15.25 10.3.15 15.45.19.03 2.85.05 5.71.07 8.56-5.15.05-10.29-.02-15.43.18.03 4.73.03 9.46-.02 14.18-3-.01-6.01-.03-9.01-.06.02-2.15.05-4.29.1-6.44-3.05 2.56-5.91 4.9-9.87 5.88-4.14 1.15-8.14.5-12.18-.65-.55.38-1.09.76-1.64 1.14-3.09-.04-6.17-.07-9.26-.13-.64-1.84-1.28-3.69-1.92-5.54-4.33-.01-8.73-.34-13.05.04-1.47 1.27-1.99 3.84-2.81 5.58-3.28.02-6.57.01-9.85-.02 5.07-12.99 10.33-25.93 15.55-38.86 2.14-.15 4.3-.16 6.44-.18z" fill="#fefefe"/><path d="M181.54 42.54c2.03-.17 4.09-.12 6.12-.14.04 5.09.04 10.18.01 15.26 5.34.28 10.46-.26 15.74.54-.04 2.06-.08 4.11-.11 6.17-5.22.05-10.42-.04-15.63.12.03 5.11.02 10.22.02 15.32h-6.26c0-5.12 0-10.23.01-15.35-5.07-.1-10.13-.09-15.2-.01-.25-2.02-.49-4.04-.72-6.07 5.14-1.15 10.62-.37 15.94-.71.04-5.03-.21-10.1.08-15.13zM367.61 43.9l1.39.86V76.2c-1.4-.35-5.94.34-4.48-2.34 1.82-.23 3.59-.59 5.29-1.08l-4.49-1.8 4.42-1.46c-1.07-.67-2.21-1.22-3.44-1.65-.54-6.5-.08-13.12-.22-19.64-1.79-.13-3.57-.29-5.35-.5l.24-1.2c2.19-.89 4.38-1.93 6.64-2.63z" fill="currentColor"/><path d="M247.16 43.95c2.34.97 7.08 1.19 7.8 3.91l-2.99.2-2.5-.25c-.07 6.33.2 12.71-.09 19.04a8.77 8.77 0 0 1-1.53 2.45c-1.31-3.46-.84-6.69-.89-10.3.08-5-.16-10.06.2-15.05z" fill="#020202"/><path d="M360.73 47.73c1.78.21 3.56.37 5.35.5.14 6.52-.32 13.14.22 19.64 1.23.43 2.37.98 3.44 1.65l-4.42 1.46 4.49 1.8c-1.7.49-3.47.85-5.29 1.08-1.46 2.68 3.08 1.99 4.48 2.34V123h-60.74c1.6-2.84 3.33-5.65 5.25-8.28 2.08-.72 4.36-1.04 6.53-1.41-2.22 2.6-3.95 4.78-4.06 8.38 4.35.22 8.69.19 13.04.06.11-3.59-2.65-1.98-5.09-2.72 1.28-.55 2.67-1.51 4.08-1.52 1.1.28 2.1.72 3.16 1.14.48 1.05.96 2.1 1.45 3.15.75-.1 1.51-.2 2.27-.31-.6-3.68-2.85-6.53-6.89-6.32-3.6-.4-4.96 1.69-7.02 4.1-.7.03-1.39.05-2.09.07 2.22-4.88 8.26-8.06 13.38-5.94 3.11.97 4.64 3.26 6.56 5.66-.69.75-1.37 1.51-2.06 2.27 3.77 1.45 7.27.8 11.23.91 6.77-.11 13.58.21 20.34-.13.59-1.87.18-2.68-1.24-2.41-2.73-.14-5.47-.12-8.21-.24.87-.41 1.74-.82 2.62-1.23.03-.72.05-1.44.08-2.16-1.9.44-3.81 1.02-5.74 1.25-2.13-1.12-3.87-2.71-3.67-5.33-.23-4.57 6.11-5.79 9.49-5.06 2.97.85 3.67 2.96 4.27 5.7-1.32-.54-2.73-1-3.93-1.76-1.23-1.38-2.01-2.98-3.74-3.88.29 2.07-.47 3.99 1.36 5.43 2.56 1.9 6.03 2.58 8.85 4.12.52-4.84-.28-8.17-4.02-11.37 2.18-2.02 4.01-4.03 4.3-7.15.43-3.27-1.16-5.52-2.67-8.21.97-.15 1.93-.31 2.9-.47l-.68-1.82c-3.36-.32-6.82-.14-10.18.1.37 3.16 4.11 1.68 6.26 2.11.14 3.84 3.07 6.51 1.24 10.09-1.7 3.73-5.24 3.87-8.72 4.97-.59-.58-1.17-1.16-1.76-1.74l1.85-1.28c-1.26-.13-2.52-.23-3.79-.31.66 1.12 1.32 2.24 1.99 3.35-4.18 1.88-5.36 3.75-5.97 8.28-1.77.39-3.39.01-4.61 1.58-1.14 1.43-.86 3.36-1.05 5.12-.64-.09-1.29-.17-1.93-.25-1.14-2.27-2.14-4.43-4.14-6.11-2.22-2.03-4.87-2.57-7.68-3.35 13.61-6.05 24.6-17.72 29.42-31.87.31-1.04.64-2.07.97-3.11 2.09-8.6 2.09-17.57.25-26.21l.27-1.16z" fill="#fefefe"/><path d="M314.89 51.21c1.53 1.48 1.47 3.2 1.81 5.17l-2.15.33c-.63-1.38-1.05-3.02-2.02-4.21-3.44-2.71-9.25-1.66-10.68 2.81-.83 3.88-.67 8.31-.2 12.24 1.18 4.41 6.02 5.97 9.94 4.03 3.2-1.23 1.77-6.05 1.99-8.72-3.13 1.09-3.89 4.04-7.32 3.66 1.06-1.6 2.19-3.41 3.74-4.56 2.95-1.89 6.26-.67 8.96-2.87 1.23-.84 2.43-1.54 3.84-2.02-.53 3.66-3.19 4.5-6.12 5.95-.32 2.73.61 7.01-1.63 9-4.7 4.88-14.19 3.23-16.08-3.66-.82-3.86-.94-9.67.08-13.48 2.09-6.67 10.99-8.23 15.84-3.67z" fill="#020202"/><path d="M66.05 50.53c4.37.7 6.47 3.75 8.63 7.24 1.35-.02 2.69-.04 4.03-.07.04 2.27.06 4.54.08 6.8-1.34-.01-2.69-.03-4.04-.04-2.3 3.89-4.83 7.16-9.72 7.44-6.27.73-12.09-4.57-11.76-10.9-.12-6.67 6.28-11.75 12.78-10.47z" fill="currentColor"/><path d="M351.79 57.8c2.97-.4 5.88 1.59 8.19 3.22-2.45 2.05-4.93 3.69-8.3 3.42-2.94-1.61-3.08-5.22.11-6.64z" fill="#fefefe"/><path d="M37.54 57.77c1.12 2.68 1.91 5.46 2.58 8.28-1.96.1-3.92.18-5.89.27.68-2.99.81-6.43 3.31-8.55z" fill="currentColor"/><path d="M266.44 58.69c.2 2.41-.03 3.76-1.21 5.87-3.18-.04-5.7-1.01-8.5-2.37l-.24-1.9c3.53-1.78 5.98-3.36 9.95-1.6zM269.98 61.97c.36 10.34 5.06 21.55 13.42 27.92-2.88-.26-5.77-.44-8.67-.54-5.6-6.67-8.7-13.63-10.13-22.22 2.62-1.21 3.88-2.79 5.38-5.16zM345.91 61.93c1.49 1.87 3.04 3.59 4.96 5.02-.44 8.09-4.71 16.15-9.76 22.33-3.04.14-6.05.32-9.03 1.02 8.71-7.01 12.99-17.39 13.83-28.37z" fill="#fefefe"/><path d="M272.71 64.13c10.79 10.74 21.5 21.54 32.32 32.27-8.51-.88-16.73-4.56-22.61-10.83-5.62-5.8-8.92-13.44-9.71-21.44zM342.95 64.11c-.69 9.13-5.12 17.85-12.03 23.83-5.67 4.76-12.7 7.68-20.06 8.45 10.56-10.88 21.5-21.41 32.09-32.28zM256.53 65.26c1.88.44 3.72 1.08 5.57 1.63.81 8.32 4.34 15.7 9.12 22.44-1.83.42-3.65.86-5.47 1.29-5.18-7.56-8.56-16.18-9.22-25.36zM353.85 66.92c1.72-.52 3.44-1.06 5.15-1.61-.24 3.74-.81 7.22-1.73 10.83-1.88 5.3-4.09 9.79-7.2 14.47-1.91-.42-3.82-.86-5.73-1.28 5.2-6.56 8.18-14.18 9.51-22.41z" fill="#fefefe"/><path d="M247.27 69.72c.66.27 1.31.56 1.95.86-.1.78-.21 1.55-.34 2.32.82.5 1.64 1.01 2.44 1.53.3 2.24-2.73 1.3-4.08 1.53.03-2.09.09-4.16.03-6.24z" fill="#020202"/><path d="M247.26 77.32c1.1-1.07 6.45-.59 5.05 1.93-1.6.58-3.27.59-4.94.38-.87-1.2-.91-1.97-.11-2.31z" fill="currentColor"/><path d="M363.73 77.33c2.05-.37 6.24-1.57 4.8 2.18-1.77.11-3.53.07-5.29 0 .15-.73.31-1.46.49-2.18zM246.8 80.57c2.39.22 6.36-1.09 7.45 1.74-2.26.4-4.53.74-6.8 1.12-.21-.95-.43-1.91-.65-2.86zM362.72 80.51c2.17.22 6.39-1.3 6.27 2.09-1.84.09-3.68.11-5.53.17 1.59.47 3.22.73 4.83 1.15l.67 2.51c-2.9.1-5.8.1-8.7.03.11-.59.23-1.18.36-1.77.52-.56 1.03-1.11 1.54-1.68.17-.83.36-1.67.56-2.5zM249.92 83.54c3.09-.09 4.62-.47 5.9 2.82-3.06.2-6.1.2-9.15.05.78-2.4.69-2.6 3.25-2.87zM258.54 90.52l.33 2.64c-1.99-.14-3.96-.35-5.91-.78 1.73-2.33 2.99-1.78 5.58-1.86zM356.61 90.72c1.67-.11 3.33-.23 5-.35l.01 3.07c-1.7-.16-3.38-.29-5.07-.56.01-.72.03-1.44.06-2.16z" fill="#020202"/><path d="M267.92 92.65c3.71-.73 7.35-1.06 11.1-.43 9.77.85 17.59 6.7 27.57 6.9-.03 2.61-.06 5.23-.14 7.84-10.15-8.55-22.47-13.88-35.9-10.58-.95-1.2-1.89-2.38-2.63-3.73zM348.11 92.64c-.96 1.23-1.92 2.46-2.9 3.67-13.28-3.12-25.79 2.06-35.74 10.7-.13-2.63-.17-5.26-.21-7.89 4.75-.4 9.32-1.31 13.72-3.18 7.96-3.39 16.54-5 25.13-3.3z" fill="#fefefe"/><path d="M261.76 94.31c-.03.8-.06 1.61-.1 2.41-2.14.05-4.27.06-6.41.04l-1.71.9c2.41 2.12-.44 3.17-2.18 1.76 1.25-1.13 1.43-2.72.56-4.79 3.33-1.45 6.4-.88 9.84-.32z" fill="currentColor"/><path d="M353.94 94.44c3.05-.44 6.3-.4 9.36-.07.11 1.14.21 2.28.3 3.43-.68-.25-1.4-.4-2.16-.44l-.4-.22c.8-.41 1.59-.83 2.37-1.26-3.14-1.09-5.8-1.25-9.03-.35 1.02 1.06 2.2 1.23 3.59 1.46.31 1.05.62 2.11.92 3.17-2.79.21-5.53.11-8.22-.28-.45-1.27.46-2.11 2.71-2.5.18-.98.36-1.96.56-2.94z" fill="#020202"/><path d="M354.38 95.53c3.23-.9 5.89-.74 9.03.35-.78.43-1.57.85-2.37 1.26l-3.07-.15c-1.39-.23-2.57-.4-3.59-1.46zM264.05 97.65c.51.45 1.01.89 1.51 1.34-.51.43-1.02.87-1.53 1.31-2.94.02-5.63.15-8.34-1.23 2.64-1.96 5.31-1.38 8.36-1.42z" fill="#020202"/><path d="M272.85 98.37c11.53-1.88 22.15 2.48 30.89 9.76l-.69 2.62c-2.66-2.1-5.17-4.16-8.16-5.79-5.8-3.33-12.18-4.15-18.77-3.69-1.09-.96-2.19-1.93-3.27-2.9zM342.98 98.38c-1.17.99-2.35 1.96-3.54 2.93-3.91-.17-7.61-.26-11.42.81-5.92 1.54-10.69 4.89-15.31 8.76-.17-.95-.34-1.9-.51-2.86 8.81-7.14 19.25-11.54 30.78-9.64z" fill="#fefefe"/><path d="M361.44 97.36c.76.04 1.48.19 2.16.44l.12 1.75c-1.77 1.95-2.9-.43-2.28-2.19z" fill="currentColor"/><path d="M263.52 101.35c1.7-.17 3.44-.11 5.15-.1l-.03 2.41c-1.88.03-3.75.02-5.63-.02.15-.77.32-1.53.51-2.29zM347.35 101.28c1.74-.13 3.53-.05 5.27.01l-.09 2.3c-1.88.04-3.75.06-5.62.04.13-.78.28-1.57.44-2.35z" fill="#020202"/><path d="M279.72 103.75c7.24-.23 13.8 2.68 19.38 7.12-6.83-.16-13.69-3.55-19.38-7.12zM336.18 103.73c-6.12 3.94-12.78 6.38-19.9 7.78 5.44-5 12.47-7.92 19.9-7.78zM307.98 108.64c.89.72 1.76 1.48 2.64 2.22.15 3.57-.23 4.56-2.49 7.28-.86-.71-1.73-1.43-2.59-2.15-.26-2.06-.26-3.96 0-6.02.8-.46 1.62-.9 2.44-1.33z" fill="#fefefe"/><path d="M305.54 109.97c-.26 2.06-.26 3.96 0 6.02-2.1-2.45-2.14-3.57 0-6.02z" fill="#020202"/><path d="M267.28 115.74c.93.16 1.78.84 2.63 1.24-.93 1.2-.85 2.89-2.75 2.54-1.03.3-1.44-1.81-1.93-2.45.66-.48 1.35-.92 2.05-1.33zM349.5 115.34c.08 1.37.13 2.74.16 4.11-1.1-.04-2.21-.07-3.31-.12.1-1.06-.06-2.42.52-3.35.86-.25 1.74-.46 2.63-.64z" fill="#fefefe"/><path d="M262.11 118.05c1.78-.41 2.53 1.45.78 2.19-1.85.4-2.55-1.39-.78-2.19zM352.14 118.4c1.01-.96 3.26.12 2.45 1.53-1.06.94-3.33-.03-2.45-1.53z" fill="currentColor"/></svg>
