<svg xmlns="http://www.w3.org/2000/svg" version="1.1" viewBox="0 0 369 123" width="369.0pt" height="123.0pt">
<path d="M 0.00 0.00 L 123.00 0.00 C 123.00 41.00 123.00 82.00 123.00 123.00 L 0.00 123.00 L 0.00 0.00 Z" fill="currentColor"/>
<path d="M 123.00 0.00 L 246.05 0.00 C 245.91 8.33 246.07 16.67 245.97 25.00 C 245.92 27.92 246.03 30.80 246.58 33.68 C 246.48 34.76 246.37 35.84 246.30 36.93 C 245.68 53.58 246.22 70.33 246.03 87.00 C 245.96 99.00 246.03 111.00 246.00 123.00 L 123.00 123.00 C 123.00 82.00 123.00 41.00 123.00 0.00 Z" fill="#fff"/>
<path d="M 246.05 0.00 L 369.00 0.00 L 369.00 9.47 C 368.11 9.50 367.22 9.53 366.33 9.55 C 366.03 15.92 366.21 22.31 366.19 28.69 C 361.58 26.47 357.57 28.36 354.32 24.33 C 354.73 23.09 355.15 21.85 355.57 20.61 C 356.34 20.31 357.11 20.01 357.88 19.71 C 359.19 20.00 360.50 20.28 361.82 20.54 C 361.78 16.76 358.99 17.23 356.16 17.45 C 351.79 18.88 350.86 24.85 354.12 27.87 C 356.65 30.39 361.19 29.05 364.17 30.78 C 366.81 32.53 367.37 36.76 364.81 38.85 C 362.62 40.72 360.41 40.26 357.76 40.39 C 355.53 36.90 353.56 33.27 351.13 29.91 C 349.41 27.55 348.38 24.95 348.67 21.98 C 349.17 16.42 352.32 12.77 355.65 8.63 L 353.78 7.62 C 350.34 10.00 347.83 13.01 343.72 14.49 C 340.09 16.02 336.47 15.73 332.90 14.23 C 333.94 13.42 334.98 12.61 336.02 11.80 C 338.65 12.43 341.26 13.11 343.81 11.78 C 346.51 10.56 348.25 8.06 349.92 5.72 L 348.92 4.96 L 346.67 3.27 C 349.72 3.30 352.76 3.29 355.81 3.24 C 355.75 4.56 355.69 5.89 355.65 7.22 L 357.49 5.92 C 358.61 7.93 358.29 9.00 357.72 11.12 C 358.07 12.10 358.42 13.08 358.80 14.05 C 360.62 15.59 362.17 15.58 364.44 15.58 C 364.32 12.71 364.57 10.71 361.98 8.93 C 359.03 7.76 357.66 5.39 355.97 2.89 L 358.34 1.92 C 354.61 -0.03 351.08 0.85 347.00 0.66 C 343.91 0.83 341.22 -0.05 338.69 2.23 L 340.04 2.64 C 341.87 3.24 343.72 3.34 345.63 3.60 L 344.18 4.80 C 342.01 6.22 339.88 7.70 337.70 9.12 C 337.41 6.26 337.86 3.74 335.42 1.70 C 334.23 0.40 332.81 0.40 331.13 1.67 C 332.14 2.45 333.16 3.22 334.17 3.99 C 334.60 5.03 335.03 6.06 335.47 7.09 C 334.62 8.50 333.89 10.42 332.55 11.42 C 330.35 11.90 327.39 12.21 326.03 9.98 C 323.33 6.60 321.70 2.81 317.01 1.83 C 313.47 1.03 311.15 2.86 307.97 3.85 C 304.75 3.14 302.53 1.05 298.96 1.77 C 293.68 2.58 291.60 7.71 288.50 11.39 C 287.31 11.58 286.12 11.77 284.93 11.98 C 283.87 11.56 282.48 11.27 281.68 10.43 C 280.51 8.93 280.66 7.35 280.43 5.56 C 281.54 4.43 282.66 3.30 283.74 2.12 L 283.34 0.25 C 278.58 1.51 278.23 4.99 277.38 9.17 C 275.27 7.76 273.26 6.15 271.06 4.88 C 269.17 3.73 267.20 4.44 265.16 4.66 C 266.35 8.00 268.64 10.76 271.97 12.09 C 274.51 13.04 276.79 12.35 279.27 11.64 C 280.24 12.50 281.22 13.36 282.19 14.22 C 278.65 15.83 274.92 15.99 271.32 14.44 C 266.90 12.83 264.37 9.15 260.22 7.17 C 260.16 10.63 262.59 12.12 264.13 14.86 C 266.20 18.25 267.18 22.48 266.00 26.35 C 264.81 29.38 262.34 31.88 260.76 34.75 C 259.63 36.53 258.73 38.92 257.03 40.20 C 254.03 40.68 251.09 40.39 249.27 37.71 C 247.71 35.24 248.87 31.74 251.44 30.48 C 254.00 29.41 257.17 29.97 259.65 28.77 C 263.51 27.06 263.98 20.77 260.58 18.40 C 258.59 16.51 255.71 17.50 253.39 18.04 C 253.49 18.91 253.59 19.78 253.69 20.66 C 254.90 20.29 256.10 19.91 257.30 19.52 C 259.85 21.10 260.25 21.56 260.71 24.57 C 257.46 27.97 253.72 26.83 249.57 28.26 C 249.61 22.25 249.62 16.23 249.55 10.22 C 248.74 10.18 247.93 10.14 247.13 10.10 C 246.76 17.93 247.61 25.92 246.58 33.68 C 246.03 30.80 245.92 27.92 245.97 25.00 C 246.07 16.67 245.91 8.33 246.05 0.00 Z" fill="#fefefe"/>
<path d="M 247.16 0.86 C 250.43 0.71 253.83 0.40 257.09 0.84 C 257.57 1.23 257.78 1.88 257.73 2.78 C 255.25 3.58 252.33 3.23 249.74 3.25 C 249.67 4.62 249.59 5.98 249.51 7.34 C 248.79 7.40 248.07 7.46 247.36 7.51 C 247.23 5.29 247.17 3.08 247.16 0.86 Z" fill="#020202"/>
<path d="M 259.68 0.89 C 265.44 0.67 271.37 0.53 277.11 1.09 C 276.76 1.78 276.39 2.46 276.00 3.12 C 270.41 3.64 264.71 3.28 259.11 3.23 L 259.68 0.89 Z" fill="#020202"/>
<path d="M 283.34 0.25 L 283.74 2.12 C 282.66 3.30 281.54 4.43 280.43 5.56 C 280.66 7.35 280.51 8.93 281.68 10.43 C 282.48 11.27 283.87 11.56 284.93 11.98 C 286.12 11.77 287.31 11.58 288.50 11.39 C 291.60 7.71 293.68 2.58 298.96 1.77 C 302.53 1.05 304.75 3.14 307.97 3.85 C 311.15 2.86 313.47 1.03 317.01 1.83 C 321.70 2.81 323.33 6.60 326.03 9.98 C 327.39 12.21 330.35 11.90 332.55 11.42 C 333.89 10.42 334.62 8.50 335.47 7.09 C 335.03 6.06 334.60 5.03 334.17 3.99 C 333.16 3.22 332.14 2.45 331.13 1.67 C 332.81 0.40 334.23 0.40 335.42 1.70 C 337.86 3.74 337.41 6.26 337.70 9.12 C 339.88 7.70 342.01 6.22 344.18 4.80 C 345.79 4.81 347.31 4.86 348.92 4.96 L 349.92 5.72 C 348.25 8.06 346.51 10.56 343.81 11.78 C 341.26 13.11 338.65 12.43 336.02 11.80 C 334.98 12.61 333.94 13.42 332.90 14.23 C 336.47 15.73 340.09 16.02 343.72 14.49 C 347.83 13.01 350.34 10.00 353.78 7.62 L 355.65 8.63 C 352.32 12.77 349.17 16.42 348.67 21.98 C 348.38 24.95 349.41 27.55 351.13 29.91 C 353.56 33.27 355.53 36.90 357.76 40.39 C 360.41 40.26 362.62 40.72 364.81 38.85 C 367.37 36.76 366.81 32.53 364.17 30.78 C 361.19 29.05 356.65 30.39 354.12 27.87 C 350.86 24.85 351.79 18.88 356.16 17.45 C 358.99 17.23 361.78 16.76 361.82 20.54 C 360.50 20.28 359.19 20.00 357.88 19.71 C 357.11 20.01 356.34 20.31 355.57 20.61 C 355.15 21.85 354.73 23.09 354.32 24.33 C 357.57 28.36 361.58 26.47 366.19 28.69 C 366.21 22.31 366.03 15.92 366.33 9.55 C 367.22 9.53 368.11 9.50 369.00 9.47 L 369.00 9.79 L 368.57 10.13 L 368.07 10.60 C 367.73 16.06 368.07 21.53 367.88 27.00 C 367.76 29.48 368.20 31.63 369.00 33.96 L 369.00 36.75 C 368.14 39.14 366.73 41.22 364.28 42.16 C 362.30 42.73 360.24 43.03 358.23 43.43 L 359.91 46.89 L 360.97 46.53 L 360.73 47.73 L 360.46 48.89 C 362.30 57.53 362.30 66.50 360.21 75.10 C 359.88 76.14 359.55 77.17 359.24 78.21 C 354.42 92.36 343.43 104.03 329.82 110.08 C 332.63 110.86 335.28 111.40 337.50 113.43 C 339.50 115.11 340.50 117.27 341.64 119.54 C 342.28 119.62 342.93 119.70 343.57 119.79 C 343.76 118.03 343.48 116.10 344.62 114.67 C 345.84 113.10 347.46 113.48 349.23 113.09 C 349.84 108.56 351.02 106.69 355.20 104.81 C 354.53 103.70 353.87 102.58 353.21 101.46 C 354.48 101.54 355.74 101.64 357.00 101.77 L 355.15 103.05 C 355.74 103.63 356.32 104.21 356.91 104.79 C 360.39 103.69 363.93 103.55 365.63 99.82 C 367.46 96.24 364.53 93.57 364.39 89.73 C 362.24 89.30 358.50 90.78 358.13 87.62 C 361.49 87.38 364.95 87.20 368.31 87.52 L 368.99 89.34 C 368.02 89.50 367.06 89.66 366.09 89.81 C 367.60 92.50 369.19 94.75 368.76 98.02 C 368.47 101.14 366.64 103.15 364.46 105.17 C 368.20 108.37 369.00 111.70 368.48 116.54 C 365.66 115.00 362.19 114.32 359.63 112.42 C 357.80 110.98 358.56 109.06 358.27 106.99 C 360.00 107.89 360.78 109.49 362.01 110.87 C 363.21 111.63 364.62 112.09 365.94 112.63 C 365.34 109.89 364.64 107.78 361.67 106.93 C 358.29 106.20 351.95 107.42 352.18 111.99 C 351.98 114.61 353.72 116.20 355.85 117.32 C 357.78 117.09 359.69 116.51 361.59 116.07 C 361.56 116.79 361.54 117.51 361.51 118.23 C 360.63 118.64 359.76 119.05 358.89 119.46 C 361.63 119.58 364.37 119.56 367.10 119.70 C 368.52 119.43 368.93 120.24 368.34 122.11 C 361.58 122.45 354.77 122.13 348.00 122.24 C 344.04 122.13 340.54 122.78 336.77 121.33 C 337.46 120.57 338.14 119.81 338.83 119.06 C 336.91 116.66 335.38 114.37 332.27 113.40 C 327.15 111.28 321.11 114.46 318.89 119.34 C 319.59 119.32 320.28 119.30 320.98 119.27 C 323.04 116.86 324.40 114.77 328.00 115.17 C 332.04 114.96 334.29 117.81 334.89 121.49 C 334.13 121.60 333.37 121.70 332.62 121.80 C 332.13 120.75 331.65 119.70 331.17 118.65 C 330.11 118.23 329.11 117.79 328.01 117.51 C 326.60 117.52 325.21 118.48 323.93 119.03 C 326.37 119.77 329.13 118.16 329.02 121.75 C 324.67 121.88 320.33 121.91 315.98 121.69 C 316.09 118.09 317.82 115.91 320.04 113.31 C 317.87 113.68 315.59 114.00 313.51 114.72 C 311.59 117.35 309.86 120.16 308.26 123.00 L 307.49 123.00 C 305.88 120.11 303.94 117.45 302.23 114.63 C 300.02 114.24 297.83 113.77 295.64 113.29 C 297.38 115.56 300.08 118.46 299.69 121.57 C 296.18 122.10 292.49 121.94 288.99 121.45 C 289.65 120.49 290.32 119.53 291.00 118.57 C 289.03 117.99 287.20 116.69 285.35 118.33 C 283.98 119.38 282.95 122.25 280.94 121.47 C 280.93 115.84 287.37 113.44 291.67 116.26 C 292.75 117.21 293.65 118.29 294.60 119.37 C 295.37 119.32 296.15 119.27 296.92 119.22 C 294.44 115.58 291.57 112.94 286.95 112.68 C 283.22 112.86 278.24 115.21 277.27 119.13 L 278.36 121.71 C 273.75 122.63 268.76 122.16 264.00 122.24 C 258.56 122.15 253.09 122.44 247.67 122.10 L 247.55 119.86 C 250.35 119.45 253.33 119.64 256.14 119.67 C 255.20 118.55 254.40 117.36 253.75 116.11 C 256.07 116.25 259.34 118.11 261.31 116.49 C 264.00 114.90 264.42 110.95 262.22 108.77 C 260.12 106.55 255.90 107.08 253.16 107.36 C 250.68 107.94 250.37 110.51 249.82 112.57 C 250.98 112.11 252.18 111.65 253.30 111.07 C 254.87 109.65 255.35 107.78 257.67 107.33 C 257.33 109.18 257.67 110.80 256.13 112.14 C 253.77 114.33 250.14 114.86 247.40 116.63 C 246.49 111.86 247.39 108.26 251.12 105.09 C 246.66 101.46 245.06 94.89 249.75 90.70 C 248.14 90.06 247.01 89.03 246.37 87.64 C 249.69 87.73 255.80 86.09 257.94 89.24 C 255.82 89.54 253.73 89.71 251.60 89.79 C 250.86 93.29 248.10 97.12 250.49 100.51 C 252.46 103.85 256.23 103.85 259.58 104.94 C 259.65 103.61 259.72 102.29 259.78 100.96 C 262.75 101.52 261.30 102.98 261.51 105.18 C 265.12 107.07 265.95 109.28 266.57 113.10 C 267.78 113.45 269.76 113.32 270.61 114.37 C 272.04 115.59 271.92 118.11 272.33 119.85 C 272.90 119.71 273.47 119.58 274.04 119.44 C 276.61 113.77 280.04 110.93 286.31 110.12 C 272.79 104.59 261.81 92.75 256.80 79.07 C 255.00 73.53 253.92 67.82 253.71 62.00 C 253.59 57.46 254.52 52.83 254.97 48.30 C 253.97 48.23 252.97 48.14 251.97 48.06 L 254.96 47.86 L 255.35 47.81 C 255.86 46.16 256.32 44.50 256.77 42.83 C 254.06 42.56 251.08 43.11 248.94 41.11 C 247.49 40.04 246.97 38.53 246.30 36.93 C 246.37 35.84 246.48 34.76 246.58 33.68 C 247.61 25.92 246.76 17.93 247.13 10.10 C 247.93 10.14 248.74 10.18 249.55 10.22 C 249.62 16.23 249.61 22.25 249.57 28.26 C 253.72 26.83 257.46 27.97 260.71 24.57 C 260.25 21.56 259.85 21.10 257.30 19.52 C 256.10 19.91 254.90 20.29 253.69 20.66 C 253.59 19.78 253.49 18.91 253.39 18.04 C 255.71 17.50 258.59 16.51 260.58 18.40 C 263.98 20.77 263.51 27.06 259.65 28.77 C 257.17 29.97 254.00 29.41 251.44 30.48 C 248.87 31.74 247.71 35.24 249.27 37.71 C 251.09 40.39 254.03 40.68 257.03 40.20 C 258.73 38.92 259.63 36.53 260.76 34.75 C 262.34 31.88 264.81 29.38 266.00 26.35 C 267.18 22.48 266.20 18.25 264.13 14.86 C 262.59 12.12 260.16 10.63 260.22 7.17 C 264.37 9.15 266.90 12.83 271.32 14.44 C 274.92 15.99 278.65 15.83 282.19 14.22 C 281.22 13.36 280.24 12.50 279.27 11.64 C 276.79 12.35 274.51 13.04 271.97 12.09 C 268.64 10.76 266.35 8.00 265.16 4.66 C 267.20 4.44 269.17 3.73 271.06 4.88 C 273.26 6.15 275.27 7.76 277.38 9.17 C 278.23 4.99 278.58 1.51 283.34 0.25 Z" fill="#020202"/>
<path d="M 347.00 0.66 C 351.08 0.85 354.61 -0.03 358.34 1.92 L 355.97 2.89 C 350.65 2.61 345.35 2.70 340.04 2.64 L 338.69 2.23 C 341.22 -0.05 343.91 0.83 347.00 0.66 Z" fill="#020202"/>
<path d="M 358.12 0.77 C 361.62 0.65 365.12 0.66 368.62 0.74 C 368.40 3.14 369.85 7.17 366.62 7.97 C 366.41 6.40 366.21 4.83 366.04 3.26 C 363.62 3.27 361.13 3.33 358.73 3.10 L 358.12 0.77 Z" fill="#020202"/>
<path d="M 340.04 2.64 C 345.35 2.70 350.65 2.61 355.97 2.89 C 357.66 5.39 359.03 7.76 361.98 8.93 C 361.04 8.99 360.09 9.05 359.15 9.12 C 359.03 10.76 358.91 12.40 358.80 14.05 C 358.42 13.08 358.07 12.10 357.72 11.12 C 358.29 9.00 358.61 7.93 357.49 5.92 L 355.65 7.22 C 355.69 5.89 355.75 4.56 355.81 3.24 C 352.76 3.29 349.72 3.30 346.67 3.27 L 348.92 4.96 C 347.31 4.86 345.79 4.81 344.18 4.80 L 345.63 3.60 C 343.72 3.34 341.87 3.24 340.04 2.64 Z" fill="currentColor"/>
<path d="M 259.47 4.06 C 259.51 4.92 259.54 5.77 259.58 6.62 C 258.73 6.59 257.88 6.55 257.03 6.52 C 257.60 4.69 257.65 4.65 259.47 4.06 Z" fill="#020202"/>
<path d="M 289.33 5.86 C 289.75 8.62 287.74 9.30 286.01 10.86 C 284.17 9.21 281.23 8.06 283.08 5.13 C 284.88 2.61 288.05 3.16 289.33 5.86 Z" fill="#020202"/>
<path d="M 304.62 5.12 C 304.57 5.86 304.51 6.60 304.46 7.34 C 300.57 7.82 296.77 8.67 292.97 9.59 C 294.32 7.90 295.80 5.72 297.78 4.76 C 300.19 3.75 302.25 4.54 304.62 5.12 Z" fill="#fefefe"/>
<path d="M 318.14 4.93 C 320.24 5.90 321.12 7.67 322.20 9.57 C 318.58 8.56 314.96 7.72 311.21 7.33 C 311.27 6.56 311.34 5.78 311.42 5.01 C 313.74 4.38 315.85 3.75 318.14 4.93 Z" fill="#fefefe"/>
<path d="M 330.02 3.57 C 333.16 3.64 333.41 5.72 333.71 8.26 C 332.51 9.05 331.31 9.82 330.09 10.59 C 329.27 10.14 328.45 9.69 327.63 9.25 C 327.26 8.46 326.90 7.67 326.54 6.88 C 327.29 5.43 328.00 3.32 330.02 3.57 Z" fill="#020202"/>
<path d="M 272.34 7.69 C 272.65 8.38 272.76 9.04 272.68 9.68 C 271.61 10.11 269.76 8.68 269.24 7.78 C 269.14 6.65 271.80 7.53 272.34 7.69 Z" fill="#fefefe"/>
<path d="M 345.60 7.12 C 346.24 8.39 343.32 10.54 342.22 9.70 C 341.44 8.24 344.36 6.31 345.60 7.12 Z" fill="currentColor"/>
<path d="M 252.79 9.81 C 254.16 8.33 255.84 8.49 257.69 8.05 C 257.47 10.02 258.36 13.19 256.50 14.51 C 255.32 15.86 253.18 15.41 251.53 15.61 C 251.73 13.46 251.26 11.56 252.79 9.81 Z" fill="#020202"/>
<path d="M 306.11 8.89 C 307.17 8.75 308.22 8.61 309.28 8.47 C 310.51 12.20 311.04 15.50 310.72 19.43 C 307.90 20.14 306.50 21.13 304.56 18.25 C 304.34 15.19 305.48 11.89 306.11 8.89 Z" fill="#fefefe"/>
<path d="M 359.15 9.12 C 360.09 9.05 361.04 8.99 361.98 8.93 C 364.57 10.71 364.32 12.71 364.44 15.58 C 362.17 15.58 360.62 15.59 358.80 14.05 C 358.91 12.40 359.03 10.76 359.15 9.12 Z" fill="#020202"/>
<path d="M 302.88 10.20 C 302.68 11.86 302.47 13.51 302.25 15.16 C 294.29 16.38 287.37 19.04 280.79 23.71 C 279.21 23.65 277.63 23.61 276.05 23.59 C 274.02 21.24 272.00 18.86 269.87 16.60 C 273.40 17.77 276.55 18.96 280.26 17.65 C 285.17 15.89 289.76 13.37 294.79 11.87 C 297.44 11.08 300.14 10.57 302.88 10.20 Z" fill="#fefefe"/>
<path d="M 312.49 10.33 C 317.20 10.43 321.77 12.03 326.11 13.76 C 330.00 15.28 332.98 17.48 336.97 18.13 C 339.68 18.59 342.64 17.45 345.19 16.59 C 343.22 18.78 341.35 21.06 339.38 23.25 C 337.84 23.30 336.29 23.36 334.74 23.45 C 328.04 18.99 321.62 16.43 313.64 15.20 C 313.25 13.58 312.79 11.97 312.49 10.33 Z" fill="#fefefe"/>
<path d="M 368.57 10.13 L 369.00 9.79 L 369.00 33.96 C 368.20 31.63 367.76 29.48 367.88 27.00 C 368.07 21.53 367.73 16.06 368.07 10.60 L 368.57 10.13 Z" fill="currentColor"/>
<path d="M 301.88 18.22 C 303.16 20.88 304.43 21.89 306.94 23.28 C 301.54 23.91 296.33 24.80 291.43 27.28 C 288.26 28.78 285.95 31.02 282.55 31.98 C 282.52 29.85 282.54 27.72 282.52 25.59 C 288.16 21.95 295.05 18.39 301.88 18.22 Z" fill="#fefefe"/>
<path d="M 314.24 18.32 C 320.57 18.33 327.28 21.84 332.55 25.16 C 332.80 26.86 333.09 28.56 333.39 30.25 C 329.81 34.28 326.12 38.07 322.98 42.48 C 323.88 42.63 324.77 42.70 325.66 42.69 C 328.91 39.45 331.84 35.85 334.87 32.40 C 336.41 32.14 337.96 31.87 339.50 31.58 C 345.59 37.20 350.38 46.97 350.87 55.24 C 349.03 56.72 347.44 58.43 345.88 60.19 C 345.04 51.16 342.19 42.65 335.89 35.95 L 333.22 35.33 C 334.01 37.28 335.02 38.94 336.29 40.60 C 340.21 45.79 342.47 52.03 342.96 58.50 C 340.00 55.30 336.89 52.26 333.87 49.13 C 331.81 47.24 330.76 44.96 327.53 45.40 C 331.12 51.63 337.86 55.78 342.07 61.64 C 337.16 66.21 332.57 71.07 327.82 75.81 C 321.25 82.47 314.44 88.88 307.93 95.60 C 297.13 85.24 286.70 74.47 276.05 63.94 C 275.28 63.08 274.24 62.24 274.03 61.06 C 278.33 56.31 283.08 51.90 287.56 47.31 C 287.50 46.54 287.44 45.77 287.37 45.00 C 286.15 45.54 284.97 46.01 284.03 47.00 C 280.27 50.74 276.72 54.66 272.75 58.19 C 273.58 49.89 277.21 42.16 283.07 36.24 C 285.67 38.11 287.70 40.88 289.88 43.22 C 290.35 43.24 290.83 43.25 291.30 43.27 C 291.39 42.64 291.48 42.00 291.57 41.36 C 289.76 39.20 287.74 37.15 286.13 34.82 L 286.40 33.44 C 291.69 29.22 298.31 26.87 305.00 26.13 C 302.21 28.96 299.34 31.71 296.51 34.51 C 295.08 35.80 294.68 36.85 294.25 38.75 C 295.99 38.24 297.18 37.70 298.43 36.42 C 301.63 33.31 304.71 30.08 307.97 27.04 C 312.02 31.00 315.89 35.21 320.15 38.93 C 320.42 38.01 320.68 37.09 320.93 36.17 C 317.47 32.94 314.12 29.58 310.82 26.18 C 317.96 26.57 323.51 29.92 329.79 32.82 L 329.24 30.11 C 323.18 25.88 316.23 23.99 308.94 23.30 C 311.33 21.92 312.47 20.22 314.24 18.32 Z" fill="#fefefe"/>
<path d="M 268.77 19.24 C 270.64 21.32 272.47 23.44 274.35 25.53 C 273.81 27.75 274.11 29.85 272.55 31.52 C 266.87 38.26 263.04 46.41 262.12 55.22 C 260.24 55.81 258.36 56.43 256.47 57.00 C 257.16 49.36 259.21 41.97 263.33 35.46 C 264.90 32.83 267.25 30.36 268.31 27.51 C 269.30 24.71 268.92 22.11 268.77 19.24 Z" fill="#fefefe"/>
<path d="M 346.34 19.18 C 346.19 21.85 345.85 24.67 346.76 27.25 C 347.77 30.15 350.09 32.71 351.69 35.37 C 355.68 41.82 358.55 49.23 358.95 56.87 C 357.24 56.32 355.54 55.76 353.83 55.21 C 352.22 45.15 348.48 37.37 341.75 29.75 C 341.64 28.16 341.50 26.56 341.33 24.97 C 343.02 23.05 344.69 21.13 346.34 19.18 Z" fill="#fefefe"/>
<path d="M 278.93 25.88 C 279.52 26.67 280.12 27.45 280.72 28.23 C 279.11 29.66 278.69 29.87 276.47 29.61 C 276.45 28.65 276.46 27.68 276.50 26.72 C 277.31 26.43 278.11 26.15 278.93 25.88 Z" fill="#fefefe"/>
<path d="M 335.15 26.34 C 336.70 26.17 338.13 26.20 339.67 26.41 C 339.18 27.58 338.67 28.75 338.15 29.90 C 337.36 29.64 336.57 29.36 335.78 29.07 C 335.56 28.17 335.35 27.26 335.15 26.34 Z" fill="#fefefe"/>
<path d="M 254.16 31.51 C 256.89 31.11 257.25 33.29 258.78 34.98 C 257.99 36.13 257.23 37.38 256.30 38.41 C 255.12 38.63 253.92 38.64 252.74 38.41 C 250.08 36.91 250.53 31.32 254.16 31.51 Z" fill="#020202"/>
<path d="M 275.24 32.43 C 277.02 32.33 278.81 32.45 280.58 32.49 C 280.94 33.00 281.30 33.51 281.66 34.02 C 274.46 41.07 270.49 50.21 269.98 60.27 C 268.45 57.94 267.04 56.35 264.59 54.94 C 266.09 46.54 269.36 38.70 275.24 32.43 Z" fill="#fefefe"/>
<path d="M 363.14 31.63 C 364.83 34.49 364.45 35.63 363.26 38.56 C 360.97 38.60 359.39 38.50 357.43 37.22 C 357.40 35.73 357.43 34.25 357.50 32.78 C 359.45 31.56 360.87 31.45 363.14 31.63 Z" fill="#020202"/>
<path d="M 255.11 33.40 L 255.76 35.11 C 255.71 37.16 253.29 37.04 253.27 35.06 C 253.49 34.08 254.10 33.53 255.11 33.40 Z" fill="#fefefe"/>
<path d="M 361.20 33.35 C 362.06 34.49 362.05 35.61 361.20 36.71 C 360.13 36.54 359.52 35.98 359.38 35.03 C 359.56 34.09 360.17 33.53 361.20 33.35 Z" fill="#fefefe"/>
<path d="M 278.37 33.89 C 277.06 37.79 274.09 40.50 272.41 44.23 C 270.87 47.28 270.39 50.50 269.41 53.72 C 267.84 54.42 267.17 53.87 267.39 52.06 C 268.05 46.40 270.80 40.89 274.22 36.38 C 275.19 34.90 276.58 34.07 278.37 33.89 Z" fill="#020202"/>
<path d="M 337.61 33.77 C 339.00 34.20 340.23 34.85 341.29 35.74 C 345.10 41.00 348.06 46.58 348.66 53.16 C 347.97 53.54 347.27 53.91 346.56 54.26 C 345.66 50.38 344.85 46.63 342.90 43.10 C 341.19 39.80 338.64 37.44 337.61 33.77 Z" fill="#020202"/>
<path d="M 246.30 36.93 C 246.97 38.53 247.49 40.04 248.94 41.11 C 251.08 43.11 254.06 42.56 256.77 42.83 C 256.32 44.50 255.86 46.16 255.35 47.81 L 254.96 47.86 C 254.24 45.14 249.50 44.92 247.16 43.95 C 246.80 48.94 247.04 54.00 246.96 59.00 C 247.01 62.61 246.54 65.84 247.85 69.30 C 248.52 68.53 249.03 67.71 249.38 66.85 C 249.67 60.52 249.40 54.14 249.47 47.81 L 251.97 48.06 C 252.97 48.14 253.97 48.23 254.97 48.30 C 254.52 52.83 253.59 57.46 253.71 62.00 C 253.92 67.82 255.00 73.53 256.80 79.07 C 261.81 92.75 272.79 104.59 286.31 110.12 C 280.04 110.93 276.61 113.77 274.04 119.44 C 273.47 119.58 272.90 119.71 272.33 119.85 C 271.92 118.11 272.04 115.59 270.61 114.37 C 269.76 113.32 267.78 113.45 266.57 113.10 C 265.95 109.28 265.12 107.07 261.51 105.18 C 261.30 102.98 262.75 101.52 259.78 100.96 C 259.72 102.29 259.65 103.61 259.58 104.94 C 256.23 103.85 252.46 103.85 250.49 100.51 C 248.10 97.12 250.86 93.29 251.60 89.79 C 253.73 89.71 255.82 89.54 257.94 89.24 C 255.80 86.09 249.69 87.73 246.37 87.64 C 247.01 89.03 248.14 90.06 249.75 90.70 C 245.06 94.89 246.66 101.46 251.12 105.09 C 247.39 108.26 246.49 111.86 247.40 116.63 C 250.14 114.86 253.77 114.33 256.13 112.14 C 257.67 110.80 257.33 109.18 257.67 107.33 C 255.35 107.78 254.87 109.65 253.30 111.07 C 252.18 111.65 250.98 112.11 249.82 112.57 C 250.37 110.51 250.68 107.94 253.16 107.36 C 255.90 107.08 260.12 106.55 262.22 108.77 C 264.42 110.95 264.00 114.90 261.31 116.49 C 259.34 118.11 256.07 116.25 253.75 116.11 C 254.40 117.36 255.20 118.55 256.14 119.67 C 253.33 119.64 250.35 119.45 247.55 119.86 L 247.67 122.10 C 253.09 122.44 258.56 122.15 264.00 122.24 C 268.76 122.16 273.75 122.63 278.36 121.71 L 277.27 119.13 C 278.24 115.21 283.22 112.86 286.95 112.68 C 291.57 112.94 294.44 115.58 296.92 119.22 C 296.15 119.27 295.37 119.32 294.60 119.37 C 293.65 118.29 292.75 117.21 291.67 116.26 C 287.37 113.44 280.93 115.84 280.94 121.47 C 282.95 122.25 283.98 119.38 285.35 118.33 C 287.20 116.69 289.03 117.99 291.00 118.57 C 290.32 119.53 289.65 120.49 288.99 121.45 C 292.49 121.94 296.18 122.10 299.69 121.57 C 300.08 118.46 297.38 115.56 295.64 113.29 C 297.83 113.77 300.02 114.24 302.23 114.63 C 303.94 117.45 305.88 120.11 307.49 123.00 L 246.00 123.00 C 246.03 111.00 245.96 99.00 246.03 87.00 C 246.22 70.33 245.68 53.58 246.30 36.93 Z" fill="#fefefe"/>
<path d="M 369.00 36.75 L 369.00 44.76 L 367.61 43.90 C 365.35 44.60 363.16 45.64 360.97 46.53 L 359.91 46.89 L 358.23 43.43 C 360.24 43.03 362.30 42.73 364.28 42.16 C 366.73 41.22 368.14 39.14 369.00 36.75 Z" fill="#fefefe"/>
<path d="M 40.29 41.43 C 42.05 45.63 43.78 49.85 45.48 54.07 C 46.45 52.52 47.40 50.94 48.48 49.46 C 53.19 43.09 61.95 39.98 69.55 42.46 C 73.20 43.49 75.96 45.71 78.79 48.11 C 78.83 45.90 78.88 43.69 78.95 41.48 C 87.23 41.54 95.51 41.52 103.80 41.49 C 103.83 44.52 103.84 47.55 103.83 50.59 C 98.65 50.57 93.47 50.63 88.29 50.46 C 87.93 52.81 87.76 55.18 87.72 57.56 C 92.87 57.81 98.02 57.71 103.17 57.75 C 103.20 60.60 103.22 63.46 103.24 66.31 C 98.09 66.36 92.95 66.29 87.81 66.49 C 87.84 71.22 87.84 75.95 87.79 80.67 C 84.79 80.66 81.78 80.64 78.78 80.61 C 78.80 78.46 78.83 76.32 78.88 74.17 C 75.83 76.73 72.97 79.07 69.01 80.05 C 64.87 81.20 60.87 80.55 56.83 79.40 C 56.28 79.78 55.74 80.16 55.19 80.54 C 52.10 80.50 49.02 80.47 45.93 80.41 C 45.29 78.57 44.65 76.72 44.01 74.87 C 39.68 74.86 35.28 74.53 30.96 74.91 C 29.49 76.18 28.97 78.75 28.15 80.49 C 24.87 80.51 21.58 80.50 18.30 80.47 C 23.37 67.48 28.63 54.54 33.85 41.61 C 35.99 41.46 38.15 41.45 40.29 41.43 Z" fill="#fefefe"/>
<path d="M 181.54 42.54 C 183.57 42.37 185.63 42.42 187.66 42.40 C 187.70 47.49 187.70 52.58 187.67 57.66 C 193.01 57.94 198.13 57.40 203.41 58.20 C 203.37 60.26 203.33 62.31 203.30 64.37 C 198.08 64.42 192.88 64.33 187.67 64.49 C 187.70 69.60 187.69 74.71 187.69 79.81 C 185.60 79.81 183.51 79.81 181.43 79.81 C 181.43 74.69 181.43 69.58 181.44 64.46 C 176.37 64.36 171.31 64.37 166.24 64.45 C 165.99 62.43 165.75 60.41 165.52 58.38 C 170.66 57.23 176.14 58.01 181.46 57.67 C 181.50 52.64 181.25 47.57 181.54 42.54 Z" fill="currentColor"/>
<path d="M 367.61 43.90 L 369.00 44.76 L 369.00 76.20 C 367.60 75.85 363.06 76.54 364.52 73.86 C 366.34 73.63 368.11 73.27 369.81 72.78 L 365.32 70.98 L 369.74 69.52 C 368.67 68.85 367.53 68.30 366.30 67.87 C 365.76 61.37 366.22 54.75 366.08 48.23 C 364.29 48.10 362.51 47.94 360.73 47.73 L 360.97 46.53 C 363.16 45.64 365.35 44.60 367.61 43.90 Z" fill="currentColor"/>
<path d="M 247.16 43.95 C 249.50 44.92 254.24 45.14 254.96 47.86 L 251.97 48.06 L 249.47 47.81 C 249.40 54.14 249.67 60.52 249.38 66.85 C 249.03 67.71 248.52 68.53 247.85 69.30 C 246.54 65.84 247.01 62.61 246.96 59.00 C 247.04 54.00 246.80 48.94 247.16 43.95 Z" fill="#020202"/>
<path d="M 360.73 47.73 C 362.51 47.94 364.29 48.10 366.08 48.23 C 366.22 54.75 365.76 61.37 366.30 67.87 C 367.53 68.30 368.67 68.85 369.74 69.52 L 365.32 70.98 L 369.81 72.78 C 368.11 73.27 366.34 73.63 364.52 73.86 C 363.06 76.54 367.60 75.85 369.00 76.20 L 369.00 123.00 L 308.26 123.00 C 309.86 120.16 311.59 117.35 313.51 114.72 C 315.59 114.00 317.87 113.68 320.04 113.31 C 317.82 115.91 316.09 118.09 315.98 121.69 C 320.33 121.91 324.67 121.88 329.02 121.75 C 329.13 118.16 326.37 119.77 323.93 119.03 C 325.21 118.48 326.60 117.52 328.01 117.51 C 329.11 117.79 330.11 118.23 331.17 118.65 C 331.65 119.70 332.13 120.75 332.62 121.80 C 333.37 121.70 334.13 121.60 334.89 121.49 C 334.29 117.81 332.04 114.96 328.00 115.17 C 324.40 114.77 323.04 116.86 320.98 119.27 C 320.28 119.30 319.59 119.32 318.89 119.34 C 321.11 114.46 327.15 111.28 332.27 113.40 C 335.38 114.37 336.91 116.66 338.83 119.06 C 338.14 119.81 337.46 120.57 336.77 121.33 C 340.54 122.78 344.04 122.13 348.00 122.24 C 354.77 122.13 361.58 122.45 368.34 122.11 C 368.93 120.24 368.52 119.43 367.10 119.70 C 364.37 119.56 361.63 119.58 358.89 119.46 C 359.76 119.05 360.63 118.64 361.51 118.23 C 361.54 117.51 361.56 116.79 361.59 116.07 C 359.69 116.51 357.78 117.09 355.85 117.32 C 353.72 116.20 351.98 114.61 352.18 111.99 C 351.95 107.42 358.29 106.20 361.67 106.93 C 364.64 107.78 365.34 109.89 365.94 112.63 C 364.62 112.09 363.21 111.63 362.01 110.87 C 360.78 109.49 360.00 107.89 358.27 106.99 C 358.56 109.06 357.80 110.98 359.63 112.42 C 362.19 114.32 365.66 115.00 368.48 116.54 C 369.00 111.70 368.20 108.37 364.46 105.17 C 366.64 103.15 368.47 101.14 368.76 98.02 C 369.19 94.75 367.60 92.50 366.09 89.81 C 367.06 89.66 368.02 89.50 368.99 89.34 L 368.31 87.52 C 364.95 87.20 361.49 87.38 358.13 87.62 C 358.50 90.78 362.24 89.30 364.39 89.73 C 364.53 93.57 367.46 96.24 365.63 99.82 C 363.93 103.55 360.39 103.69 356.91 104.79 C 356.32 104.21 355.74 103.63 355.15 103.05 L 357.00 101.77 C 355.74 101.64 354.48 101.54 353.21 101.46 C 353.87 102.58 354.53 103.70 355.20 104.81 C 351.02 106.69 349.84 108.56 349.23 113.09 C 347.46 113.48 345.84 113.10 344.62 114.67 C 343.48 116.10 343.76 118.03 343.57 119.79 C 342.93 119.70 342.28 119.62 341.64 119.54 C 340.50 117.27 339.50 115.11 337.50 113.43 C 335.28 111.40 332.63 110.86 329.82 110.08 C 343.43 104.03 354.42 92.36 359.24 78.21 C 359.55 77.17 359.88 76.14 360.21 75.10 C 362.30 66.50 362.30 57.53 360.46 48.89 L 360.73 47.73 Z" fill="#fefefe"/>
<path d="M 314.89 51.21 C 316.42 52.69 316.36 54.41 316.70 56.38 C 315.98 56.49 315.27 56.60 314.55 56.71 C 313.92 55.33 313.50 53.69 312.53 52.50 C 309.09 49.79 303.28 50.84 301.85 55.31 C 301.02 59.19 301.18 63.62 301.65 67.55 C 302.83 71.96 307.67 73.52 311.59 71.58 C 314.79 70.35 313.36 65.53 313.58 62.86 C 310.45 63.95 309.69 66.90 306.26 66.52 C 307.32 64.92 308.45 63.11 310.00 61.96 C 312.95 60.07 316.26 61.29 318.96 59.09 C 320.19 58.25 321.39 57.55 322.80 57.07 C 322.27 60.73 319.61 61.57 316.68 63.02 C 316.36 65.75 317.29 70.03 315.05 72.02 C 310.35 76.90 300.86 75.25 298.97 68.36 C 298.15 64.50 298.03 58.69 299.05 54.88 C 301.14 48.21 310.04 46.65 314.89 51.21 Z" fill="#020202"/>
<path d="M 66.05 50.53 C 70.42 51.23 72.52 54.28 74.68 57.77 C 76.03 57.75 77.37 57.73 78.71 57.70 C 78.75 59.97 78.77 62.24 78.79 64.50 C 77.45 64.49 76.10 64.47 74.75 64.46 C 72.45 68.35 69.92 71.62 65.03 71.90 C 58.76 72.63 52.94 67.33 53.27 61.00 C 53.15 54.33 59.55 49.25 66.05 50.53 Z" fill="currentColor"/>
<path d="M 351.79 57.80 C 354.76 57.40 357.67 59.39 359.98 61.02 C 357.53 63.07 355.05 64.71 351.68 64.44 C 348.74 62.83 348.60 59.22 351.79 57.80 Z" fill="#fefefe"/>
<path d="M 37.54 57.77 C 38.66 60.45 39.45 63.23 40.12 66.05 C 38.16 66.15 36.20 66.23 34.23 66.32 C 34.91 63.33 35.04 59.89 37.54 57.77 Z" fill="currentColor"/>
<path d="M 266.44 58.69 C 266.64 61.10 266.41 62.45 265.23 64.56 C 262.05 64.52 259.53 63.55 256.73 62.19 C 256.65 61.55 256.57 60.92 256.49 60.29 C 260.02 58.51 262.47 56.93 266.44 58.69 Z" fill="#fefefe"/>
<path d="M 269.98 61.97 C 270.34 72.31 275.04 83.52 283.40 89.89 C 280.52 89.63 277.63 89.45 274.73 89.35 C 269.13 82.68 266.03 75.72 264.60 67.13 C 267.22 65.92 268.48 64.34 269.98 61.97 Z" fill="#fefefe"/>
<path d="M 345.91 61.93 C 347.40 63.80 348.95 65.52 350.87 66.95 C 350.43 75.04 346.16 83.10 341.11 89.28 C 338.07 89.42 335.06 89.60 332.08 90.30 C 340.79 83.29 345.07 72.91 345.91 61.93 Z" fill="#fefefe"/>
<path d="M 272.71 64.13 C 283.50 74.87 294.21 85.67 305.03 96.40 C 296.52 95.52 288.30 91.84 282.42 85.57 C 276.80 79.77 273.50 72.13 272.71 64.13 Z" fill="#fefefe"/>
<path d="M 342.95 64.11 C 342.26 73.24 337.83 81.96 330.92 87.94 C 325.25 92.70 318.22 95.62 310.86 96.39 C 321.42 85.51 332.36 74.98 342.95 64.11 Z" fill="#fefefe"/>
<path d="M 256.53 65.26 C 258.41 65.70 260.25 66.34 262.10 66.89 C 262.91 75.21 266.44 82.59 271.22 89.33 C 269.39 89.75 267.57 90.19 265.75 90.62 C 260.57 83.06 257.19 74.44 256.53 65.26 Z" fill="#fefefe"/>
<path d="M 353.85 66.92 C 355.57 66.40 357.29 65.86 359.00 65.31 C 358.76 69.05 358.19 72.53 357.27 76.14 C 355.39 81.44 353.18 85.93 350.07 90.61 C 348.16 90.19 346.25 89.75 344.34 89.33 C 349.54 82.77 352.52 75.15 353.85 66.92 Z" fill="#fefefe"/>
<path d="M 247.27 69.72 C 247.93 69.99 248.58 70.28 249.22 70.58 C 249.12 71.36 249.01 72.13 248.88 72.90 C 249.70 73.40 250.52 73.91 251.32 74.43 C 251.62 76.67 248.59 75.73 247.24 75.96 C 247.27 73.87 247.33 71.80 247.27 69.72 Z" fill="#020202"/>
<path d="M 247.26 77.32 C 248.36 76.25 253.71 76.73 252.31 79.25 C 250.71 79.83 249.04 79.84 247.37 79.63 C 246.50 78.43 246.46 77.66 247.26 77.32 Z" fill="currentColor"/>
<path d="M 363.73 77.33 C 365.78 76.96 369.97 75.76 368.53 79.51 C 366.76 79.62 365.00 79.58 363.24 79.51 C 363.39 78.78 363.55 78.05 363.73 77.33 Z" fill="#020202"/>
<path d="M 246.80 80.57 C 249.19 80.79 253.16 79.48 254.25 82.31 C 251.99 82.71 249.72 83.05 247.45 83.43 C 247.24 82.48 247.02 81.52 246.80 80.57 Z" fill="#020202"/>
<path d="M 362.72 80.51 C 364.89 80.73 369.11 79.21 368.99 82.60 C 367.15 82.69 365.31 82.71 363.46 82.77 C 365.05 83.24 366.68 83.50 368.29 83.92 L 368.96 86.43 C 366.06 86.53 363.16 86.53 360.26 86.46 C 360.37 85.87 360.49 85.28 360.62 84.69 C 361.14 84.13 361.65 83.58 362.16 83.01 C 362.33 82.18 362.52 81.34 362.72 80.51 Z" fill="#020202"/>
<path d="M 249.92 83.54 C 253.01 83.45 254.54 83.07 255.82 86.36 C 252.76 86.56 249.72 86.56 246.67 86.41 C 247.45 84.01 247.36 83.81 249.92 83.54 Z" fill="#020202"/>
<path d="M 258.54 90.52 C 258.65 91.40 258.76 92.28 258.87 93.16 C 256.88 93.02 254.91 92.81 252.96 92.38 C 254.69 90.05 255.95 90.60 258.54 90.52 Z" fill="#020202"/>
<path d="M 356.61 90.72 C 358.28 90.61 359.94 90.49 361.61 90.37 L 361.62 93.44 C 359.92 93.28 358.24 93.15 356.55 92.88 C 356.56 92.16 356.58 91.44 356.61 90.72 Z" fill="#020202"/>
<path d="M 267.92 92.65 C 271.63 91.92 275.27 91.59 279.02 92.22 C 288.79 93.07 296.61 98.92 306.59 99.12 C 306.56 101.73 306.53 104.35 306.45 106.96 C 296.30 98.41 283.98 93.08 270.55 96.38 C 269.60 95.18 268.66 94.00 267.92 92.65 Z" fill="#fefefe"/>
<path d="M 348.11 92.64 C 347.15 93.87 346.19 95.10 345.21 96.31 C 331.93 93.19 319.42 98.37 309.47 107.01 C 309.34 104.38 309.30 101.75 309.26 99.12 C 314.01 98.72 318.58 97.81 322.98 95.94 C 330.94 92.55 339.52 90.94 348.11 92.64 Z" fill="#fefefe"/>
<path d="M 261.76 94.31 C 261.73 95.11 261.70 95.92 261.66 96.72 C 259.52 96.77 257.39 96.78 255.25 96.76 C 254.68 97.06 254.11 97.36 253.54 97.66 C 255.95 99.78 253.10 100.83 251.36 99.42 C 252.61 98.29 252.79 96.70 251.92 94.63 C 255.25 93.18 258.32 93.75 261.76 94.31 Z" fill="currentColor"/>
<path d="M 353.94 94.44 C 356.99 94.00 360.24 94.04 363.30 94.37 C 363.41 95.51 363.51 96.65 363.60 97.80 C 362.92 97.55 362.20 97.40 361.44 97.36 L 361.04 97.14 C 361.84 96.73 362.63 96.31 363.41 95.88 C 360.27 94.79 357.61 94.63 354.38 95.53 C 355.40 96.59 356.58 96.76 357.97 96.99 C 358.28 98.04 358.59 99.10 358.89 100.16 C 356.10 100.37 353.36 100.27 350.67 99.88 C 350.22 98.61 351.13 97.77 353.38 97.38 C 353.56 96.40 353.74 95.42 353.94 94.44 Z" fill="#020202"/>
<path d="M 354.38 95.53 C 357.61 94.63 360.27 94.79 363.41 95.88 C 362.63 96.31 361.84 96.73 361.04 97.14 C 360.02 97.09 358.99 97.04 357.97 96.99 C 356.58 96.76 355.40 96.59 354.38 95.53 Z" fill="#020202"/>
<path d="M 264.05 97.65 C 264.56 98.10 265.06 98.54 265.56 98.99 C 265.05 99.42 264.54 99.86 264.03 100.30 C 261.09 100.32 258.40 100.45 255.69 99.07 C 258.33 97.11 261.00 97.69 264.05 97.65 Z" fill="#020202"/>
<path d="M 272.85 98.37 C 284.38 96.49 295.00 100.85 303.74 108.13 C 303.51 109.00 303.28 109.88 303.05 110.75 C 300.39 108.65 297.88 106.59 294.89 104.96 C 289.09 101.63 282.71 100.81 276.12 101.27 C 275.03 100.31 273.93 99.34 272.85 98.37 Z" fill="#fefefe"/>
<path d="M 342.98 98.38 C 341.81 99.37 340.63 100.34 339.44 101.31 C 335.53 101.14 331.83 101.05 328.02 102.12 C 322.10 103.66 317.33 107.01 312.71 110.88 C 312.54 109.93 312.37 108.98 312.20 108.02 C 321.01 100.88 331.45 96.48 342.98 98.38 Z" fill="#fefefe"/>
<path d="M 361.44 97.36 C 362.20 97.40 362.92 97.55 363.60 97.80 L 363.72 99.55 C 361.95 101.50 360.82 99.12 361.44 97.36 Z" fill="currentColor"/>
<path d="M 263.52 101.35 C 265.22 101.18 266.96 101.24 268.67 101.25 C 268.66 102.05 268.65 102.86 268.64 103.66 C 266.76 103.69 264.89 103.68 263.01 103.64 C 263.16 102.87 263.33 102.11 263.52 101.35 Z" fill="#020202"/>
<path d="M 347.35 101.28 C 349.09 101.15 350.88 101.23 352.62 101.29 C 352.59 102.05 352.56 102.82 352.53 103.59 C 350.65 103.63 348.78 103.65 346.91 103.63 C 347.04 102.85 347.19 102.06 347.35 101.28 Z" fill="#020202"/>
<path d="M 279.72 103.75 C 286.96 103.52 293.52 106.43 299.10 110.87 C 292.27 110.71 285.41 107.32 279.72 103.75 Z" fill="#fefefe"/>
<path d="M 336.18 103.73 C 330.06 107.67 323.40 110.11 316.28 111.51 C 321.72 106.51 328.75 103.59 336.18 103.73 Z" fill="#fefefe"/>
<path d="M 307.98 108.64 C 308.87 109.36 309.74 110.12 310.62 110.86 C 310.77 114.43 310.39 115.42 308.13 118.14 C 307.27 117.43 306.40 116.71 305.54 115.99 C 305.28 113.93 305.28 112.03 305.54 109.97 C 306.34 109.51 307.16 109.07 307.98 108.64 Z" fill="#fefefe"/>
<path d="M 305.54 109.97 C 305.28 112.03 305.28 113.93 305.54 115.99 C 303.44 113.54 303.40 112.42 305.54 109.97 Z" fill="#020202"/>
<path d="M 267.28 115.74 C 268.21 115.90 269.06 116.58 269.91 116.98 C 268.98 118.18 269.06 119.87 267.16 119.52 C 266.13 119.82 265.72 117.71 265.23 117.07 C 265.89 116.59 266.58 116.15 267.28 115.74 Z" fill="#fefefe"/>
<path d="M 349.50 115.34 C 349.58 116.71 349.63 118.08 349.66 119.45 C 348.56 119.41 347.45 119.38 346.35 119.33 C 346.45 118.27 346.29 116.91 346.87 115.98 C 347.73 115.73 348.61 115.52 349.50 115.34 Z" fill="#fefefe"/>
<path d="M 262.11 118.05 C 263.89 117.64 264.64 119.50 262.89 120.24 C 261.04 120.64 260.34 118.85 262.11 118.05 Z" fill="currentColor"/>
<path d="M 352.14 118.40 C 353.15 117.44 355.40 118.52 354.59 119.93 C 353.53 120.87 351.26 119.90 352.14 118.40 Z" fill="currentColor"/>
</svg>
