<svg aria-hidden="true" xmlns="http://www.w3.org/2000/svg" viewBox="0 0 223 52" width="223pt" height="52pt"><path d="M23.97 6.18c8.3-.59 17.09 3.88 19.97 11.98 1.53 4.27.56 8.25-.99 12.32.87 2.55 2.19 4.74 1.18 7.5-1.54 4.15-5.88 6.28-10.16 5.92-3.7-.19-5.67-2.69-8.72-4.35-2.04 1.14-3.69 2.72-5.83 3.72-4.69 1.75-10.71.03-12.79-4.79-1.2-2.94-.03-5.26 1.04-7.96-1.26-3.51-2.47-6.7-1.55-10.5C7.79 11.91 16 6.46 23.97 6.18zM97.27 12.76c1.49.01 2.97.01 4.46.02-.58 2.67-1.17 5.33-1.82 7.98 2.23-.68 4.74-2.27 7-.85 3.02 2.06 2.52 6.38 1.29 9.33-1.98 4.8-7.9 7.45-12.65 5.06-1.91-1.3-1.78-3.18-1.48-5.23.89-5.47 2.16-10.87 3.2-16.31zM148.23 13.21c1.4-.8 3.95 1.28 2.85 2.69-.29 1.91-3.3 2.59-4.22.99-1.26-1.05-.12-3.4 1.37-3.68z" fill="currentColor"/><path d="m13.89 18.73 3.37-.03v4.65l-3.37-.03v-4.59zM19.67 18.71c4.63 0 9.26.01 13.89-.02v4.64c-4.63-.01-9.26-.02-13.89 0v-4.62z" fill="#2a2d3e"/><path d="M78.66 19.86c1.24-.26 2.5-.39 3.76-.55-.12.68-.23 1.35-.35 2.03 1.34-.69 2.73-1.49 4.16-1.93 2.27-.49 4.49.89 5.24 3.04 1.14 4.31-.43 9.36-4.39 11.67-1.87 1.2-4.72.59-6.87.82l-1.08 5.94c-1.48.01-2.96.01-4.45.01 1.49-6.98 2.53-14.06 3.98-21.03zM121.55 19.54c3.51.76 4.52 5.58 1.76 7.75-2.45 1.63-6.1 1.56-8.88 2.28 2.8 2.7 4.92 2.05 8.39 1.62.04 1.03.08 2.05.13 3.08-2.81.48-5.85 1.5-8.59.32-1.66-.66-2.73-1.99-3.16-3.71-1.58-6.11 3.79-12.99 10.35-11.34zM163.01 19.3c1.96.12 3.55 1.58 3.52 3.62-.02 3.96-1.2 7.97-1.89 11.87-1.48-.01-2.96-.02-4.44-.02.71-3.68 1.85-7.68 1.59-11.43l-1.67-.61c-3.89 2.07-3.7 8.32-4.67 12.08-1.47-.02-2.94-.04-4.41-.05.96-5.03 1.92-10.05 2.78-15.09l3.82-.03-.32 2.08c1.67-.95 3.69-2.62 5.69-2.42zM180.79 19.36c1.8.31 3 1.81 2.97 3.63-.03 3.92-1.16 7.88-1.78 11.75l-4.52.06c.62-3.53 1.74-7.19 1.69-10.78l-1.13-1.58c-4.71 2.03-4.18 8.1-5.3 12.34h-4.43c.98-5.02 1.97-10.04 2.74-15.1h3.94l-.49 2.12c1.92-1.12 3.95-2.9 6.31-2.44zM197.28 19.74c3.33 1.21 3.7 6.45.45 7.97-2.5 1.16-5.54 1.25-8.19 1.89 2.82 2.61 4.96 2.02 8.44 1.65.08 1 .15 1.99.23 2.99-3.15.53-6.48 1.73-9.46 0-3.04-1.73-3.02-5.83-2.14-8.78 1.47-4.39 6.1-7.33 10.67-5.72zM54.6 19.66c1.51 0 3.03.01 4.54.02 0 3.65-.02 7.3-.01 10.95 1.44-3.71 3.05-7.34 4.68-10.96 1.22-.01 2.44-.01 3.66-.01.2 3.74.31 7.48.35 11.23 1.3-3.78 2.75-7.5 4.26-11.2 1.51-.02 3.03-.03 4.54-.04-2.5 5.03-4.92 10.08-7.34 15.14-1.39 0-2.77-.01-4.16-.03-.3-3.31-.47-6.63-.66-9.95-1.29 3.39-2.69 6.71-4.22 10-1.42-.03-2.85-.05-4.27-.08-.4-5.03-.83-10.06-1.37-15.07zM141.89 20.11c-.7 4.29-1.44 8.59-2.27 12.87-.59 2.66-1.3 5.4-3.72 7-3.21 2.01-6.69 1.15-10.2.67.32-1.11.64-2.21.95-3.32 1.97.05 4.72.84 6.51-.14 1.16-1.18 1.96-2.8 2.82-4.21-2.55.85-5.17 2.79-7.68.73-3.82-3.11-1.69-10.05 1.92-12.5 3.71-2.69 7.49-1.89 11.67-1.1zM145.79 19.66c1.49.01 2.97.02 4.46.04-1.02 5.02-1.93 10.07-2.9 15.1-1.46-.02-2.93-.03-4.39-.05.94-5.03 1.9-10.06 2.83-15.09zM203.49 19.64c1.26.01 2.52.03 3.79.04l-.49 2.32c1.89-1.18 3.8-2.31 5.74-3.42-.15 1.49-.31 2.97-.49 4.46-1.82.96-4.04 1.22-4.77 3.39-1.07 2.63-1.37 5.62-1.92 8.39-1.47-.03-2.94-.06-4.41-.08 1.02-5 1.94-10.02 2.55-15.1z" fill="currentColor"/><path d="M120.87 22.84c.31 3.46-3.65 2.43-5.88 3.02 1.88-2.15 2.64-3.94 5.88-3.02zM195.98 22.82c.24 3.63-3.54 2.35-5.89 3.01 1.89-2.16 2.69-3.88 5.89-3.01zM85.2 22.22c4.31 2.76 1.15 10.7-3.95 9.52-.13-4.15.63-6.86 3.95-9.52zM104.28 24c1.04 2.55-1.45 8.92-4.89 7.52l-.98-.27c.03-2.19.21-4.57 1.35-6.5 1.09-1.5 3.32-3.05 4.52-.75zM137.25 22.33c-.65 3.93-.99 7.17-4.38 9.77-1.42-2.14-2.63-3.21-1.47-5.91.95-2.98 3.19-3.12 5.85-3.86zM15.91 26.2c1.14.51 2.29 1.04 3.43 1.57 4.58 2.59 9.03 1.81 14.05 1.83-4.16 4.47-11.09 2.34-15.66-.28-.63-1.03-1.24-2.07-1.82-3.12z" fill="#2a2d3e"/></svg>
