<svg class="logo-wplift" aria-hidden="true" xmlns="http://www.w3.org/2000/svg" viewBox="0 0 239 125" width="239pt" height="125pt"><path d="M209.44 19.39c-.01 1.59-.01 3.18-.02 4.76-.04 22.8.02 45.61-.04 68.4-15.26-2.11-30.12-.97-45.31.91-.36-.53-.71-1.06-1.07-1.58 1.32-4.48 1.14-8.85.62-13.42l3.78-.87c.02-.44.05-.89.07-1.33.33-7.8.12-15.62.09-23.42l-.68-.17-1.82-1.28c.89-.76 1.78-1.51 2.67-2.27-.37-1.73-.11-3.26-1.6-4.49-1.07-.71-2.76-.39-3.98-.37.96-.55 1.93-1.07 2.9-1.6-2.32-7.4.12-14.81-1.93-22.35 15.04-1.97 31.34-3.83 46.32-.92z" class="text-glyph" fill="#e5103b"/><path d="M163.12 20.31c2.05 7.54-.39 14.95 1.93 22.35-.97.53-1.94 1.05-2.9 1.6-3.08 1.51-2.36 5.61.41 7.12.84-.01 1.67-.01 2.5.01l1.82 1.28c-2.18.33-4.37.66-6.54 1.07-.21 7.62 0 15.26-.11 22.88 2.41-.12 4.83-.25 7.24-.36-.02.44-.05.89-.07 1.33l-3.78.87c.52 4.57.7 8.94-.62 13.42.36.52.71 1.05 1.07 1.58-7.28.86-14.51 2.13-21.78 3.09-2.03-.62-4.03-1.35-6.03-2.07-.15-2.61-.28-5.23-.41-7.84-.49.12-.99.24-1.49.37.24-2.58.34-5.15.36-7.73 3.38.32 6.28.93 9.11-1.47 4.43-3.98 4.38-10.16 3.6-15.61-.6-3.21-2.7-4.95-5.32-6.58-1.58-2.18-2.01-4.62-2.52-7.2 2.16-1.48 3.4-3.06 4.54-5.4 1.28-2.7 3.59-4.24 5.22-6.64.35-1.22.26-2.58.32-3.84-2.19.09-4.39.23-6.59.37l3.43.9c.92 2.05-.51 2.92-1.44 4.55-1.48-2.23-2.92-4.38-5.09-6 .07-1.28.14-2.57.22-3.85l-2.76-2.22c.81-.34 1.61-.67 2.41-1.01-1.7-.31-3.4-.62-5.11-.88 9.49-1.16 18.9-2.85 28.38-4.09z" class="text-glyph" fill="#e51331"/><path d="M209.42 24.15c1.62.44 3.23.93 4.85 1.42-.06 24.81.02 49.63-.04 74.45-8.01-1.75-16.02-3.18-24.23-3.47-33.94-1.31-71.7 8.59-105.34 3.76-.31.41-.61.82-.9 1.24-.17-.51-.34-1.02-.5-1.53.95-.2 1.91-.37 2.86-.54 6.72.26 13.37.35 20.09.16 12.07-.23 24.13-1.43 36.08-3.09 7.27-.96 14.5-2.23 21.78-3.09 15.19-1.88 30.05-3.02 45.31-.91.06-22.79 0-45.6.04-68.4z" class="text-glyph" fill="#0275be"/><path d="M134.74 24.4c1.71.26 3.41.57 5.11.88-.8.34-1.6.67-2.41 1.01l2.76 2.22c-.08 1.28-.15 2.57-.22 3.85-4.09-1.5-8.21-.82-10.93 2.75-1.91 2.43-1.4 4.86-1.85 7.72-1.46 1.39-3.09 2.61-4.44 4.1-.64 1.02-.46 2.52-.71 3.68 2.66.03 5.19-.07 7.69-1.06 3.3-1.31 6.36-.77 9.85-1.13.51 2.58.94 5.02 2.52 7.2-2.18.31-4.22 1.02-6.22 1.93-1.15-.01-2.31-.03-3.46-.04-3.76-.43-6.92.2-10.48 1.38-.86.19-1.7.43-2.54.71-1.06 3.83-1.84 7.71-3.27 11.43-.74-3.67-1.61-7.3-2.67-10.89-2.59.11-5.18.23-7.78.34-1.03 3.67-2.13 7.31-3.51 10.86-.67-3.66-1.54-7.24-2.74-10.77-2.45.09-4.9.15-7.36.19 2.02 7.06 4.29 14.06 6.48 21.08 2.54-.02 5.09 0 7.62-.16l.72-2.36c.71 1.61 1.5 2.99 1.34 4.81-.18 3.85-.07 7.68-.03 11.54.1 1.44-1.32 2.79-2 3.97-6.72.19-13.37.1-20.09-.16l-2.57-.12c-.07-24.38-.01-48.77-.03-73.16 17.11.89 34.2.06 51.22-1.8z" class="text-glyph" fill="#e51823"/><path d="M80.35 26.11c1.06.01 2.12.04 3.17.09.02 24.39-.04 48.78.03 73.16l-3.26-.15c.07-24.36-.06-48.74.06-73.1z" fill="#222524"/><path class="text-invert" d="M139.98 32.36c2.17 1.62 3.61 3.77 5.09 6 .93-1.63 2.36-2.5 1.44-4.55l-3.43-.9c2.2-.14 4.4-.28 6.59-.37-.06 1.26.03 2.62-.32 3.84-1.63 2.4-3.94 3.94-5.22 6.64-1.14 2.34-2.38 3.92-4.54 5.4-3.49.36-6.55-.18-9.85 1.13-2.5.99-5.03 1.09-7.69 1.06.25-1.16.07-2.66.71-3.68 1.35-1.49 2.98-2.71 4.44-4.1.45-2.86-.06-5.29 1.85-7.72 2.72-3.57 6.84-4.25 10.93-2.75z" fill="#fff"/><path class="text-invert" d="M183.4 41.47c.03 2.02.05 4.04.07 6.07-1.25.03-2.51.07-3.76.11-.55 1.24-1.1 2.49-1.64 3.74l4.26.18.03 4.92c-1.29.11-2.57.21-3.85.32-.12 6.18-.04 12.35-.08 18.53-2.44.1-4.88.21-7.31.31.02-6 .02-12 0-18l-2.81.01c.03-1.58.07-3.16.11-4.74l2.3-.8c.77-2.88.32-5.68 2.42-7.97 2.89-2.94 6.47-2.57 10.26-2.68z" fill="#fefefe"/><path d="M45.79 44.33c13.42 3.2 23.65 16.9 22.96 30.68-.1 6.23-2.53 11.99-6.29 16.89 1.3-5.01 2.63-9.66 2.05-14.91-.73-7.5-4.38-14.24-9.71-19.48-6.02-6.04-14.36-8.69-22.78-8.24-9.36-.13-17.51 4.51-24.17 10.73 3.25-4.62 7.32-9.15 12.25-12 7.72-4.6 16.99-5.85 25.69-3.67z" fill="#0175bd"/><path d="M127.74 43.39c.95 1.22 1.8 2.5 2.6 3.83-2.07.51-4.14 1.01-6.21 1.47.78-2.24 1.01-4.53 3.61-5.3z" class="text-glyph" fill="#ea3e50"/><path class="text-invert" d="M162.15 44.26c1.22-.02 2.91-.34 3.98.37 1.49 1.23 1.23 2.76 1.6 4.49-.89.76-1.78 1.51-2.67 2.27-.83-.02-1.66-.02-2.5-.01-2.77-1.51-3.49-5.61-.41-7.12zM193.29 44.64c.05 2.19.09 4.39.15 6.58 1.47-.01 2.95-.02 4.42-.02.02 1.81.03 3.62.04 5.44-1.52-.07-3.03-.16-4.54-.23-.03 4.04-.02 8.08.01 12.13 1.55.24 3.06.55 4.55 1.04-.04 1.98-.07 3.96-.11 5.94-4.09 0-8.77.93-11.1-3.36-1.99-4.6-.87-10.55-1.11-15.49l-2.33-.05c.01-1.74.01-3.49.01-5.24l2.3-.16-.03-6.08c2.58-.21 5.16-.39 7.74-.5z" fill="#fefefe"/><path class="text-invert" d="M157.47 45.06c-.04 10.73.04 21.46-.04 32.18-2.59.15-5.18.3-7.77.41.09-10.41-.02-20.83.03-31.24 2.55-.74 5.16-1.04 7.78-1.35z" fill="#fff"/><path d="M32.02 49.27c8.42-.45 16.76 2.2 22.78 8.24-3.4.73-6.83 1.28-10.27 1.77-3.02.5-5.98 1.25-8.89 2.22-1.74.54-3.44 1.16-5.13 1.84-3.37-6.97-12.2-8.5-18.33-4.16C-.25 67.92-1.83 86.3 6.74 98.27c2.83 4.02 6.66 6.57 10.74 9.16a231.61 231.61 0 0 0-3.65 6.78c6.84.36 13.67.38 20.5.02-.66-2.49-1.06-4.81-2.58-6.95-3.44-4.91-8.55-8-11.73-13.3-1.69-2.59-2.15-5.43-2.62-8.42l1.51.05c3.34 1.03 4.95 5.73 7.3 8.18 4.35 5.52 12.14 11.93 19.66 10.19 1.66-.26 3.32-.54 4.99-.75.63 3.92 1.52 7.74 2.82 11.49-13.96-.22-27.96.71-41.9.04.96-2.3 2.07-4.57 2.84-6.95-1.58-2.13-4.07-3.6-5.96-5.47C4.22 98.29 1.97 91.92 0 86.38V75.44C1.95 69.95 4.32 64.67 7.85 60c6.66-6.22 14.81-10.86 24.17-10.73z" fill="#efeff5"/><path class="text-invert" d="M160.34 53.74c2.17-.41 4.36-.74 6.54-1.07l.68.17c.03 7.8.24 15.62-.09 23.42-2.41.11-4.83.24-7.24.36.11-7.62-.1-15.26.11-22.88z" fill="#fffefe"/><path class="text-invert" d="M142.11 55.62c2.62 1.63 4.72 3.37 5.32 6.58.78 5.45.83 11.63-3.6 15.61-2.83 2.4-5.73 1.79-9.11 1.47-.02 2.58-.12 5.15-.36 7.73-2.28.55-4.58 1-6.89 1.4-.11-9.95-.02-19.89-.05-29.84 1.67-.37 3.33-.74 5.01-1.06 1.15.01 2.31.03 3.46.04 2-.91 4.04-1.62 6.22-1.93z" class="text-glyph" fill="#fefefe"/><path d="M30.51 63.34c-3.49 1.42-6.83 3.12-10.1 4.98-2.71 0-5.46-.34-7.75 1.36-1.95 1.3-2.78 3.43-3.69 5.5-.63 4.21 1.42 7.9 5.05 9.98 1.12.18 2.25.31 3.38.4.47 2.99.93 5.83 2.62 8.42 3.18 5.3 8.29 8.39 11.73 13.3 1.52 2.14 1.92 4.46 2.58 6.95-6.83.36-13.66.34-20.5-.02 1.18-2.29 2.4-4.54 3.65-6.78-4.08-2.59-7.91-5.14-10.74-9.16-8.57-11.97-6.99-30.35 5.44-39.09 6.13-4.34 14.96-2.81 18.33 4.16z" fill="#dfd7d5"/><path d="M54.8 57.51c5.33 5.24 8.98 11.98 9.71 19.48.58 5.25-.75 9.9-2.05 14.91-1.66 2.37-3.35 4.72-5.1 7.03l-.17-1.28c2.66-8.84 2.37-18.16-2.85-26.01-2.16-3.42-5.38-4.3-8.39-7-.52-1.77-.96-3.57-1.42-5.36 3.44-.49 6.87-1.04 10.27-1.77z" fill="#71c7d7"/><path d="M132.43 57.51c-1.68.32-3.34.69-5.01 1.06.03 9.95-.06 19.89.05 29.84 2.31-.4 4.61-.85 6.89-1.4.5-.13 1-.25 1.49-.37.13 2.61.26 5.23.41 7.84 2 .72 4 1.45 6.03 2.07-11.95 1.66-24.01 2.86-36.08 3.09.68-1.18 2.1-2.53 2-3.97-.04-3.86-.15-7.69.03-11.54.16-1.82-.63-3.2-1.34-4.81.74-2.84 1.46-5.69 2.18-8.53 1.37 3.53 2.46 7.16 3.47 10.81 2.42-.12 4.98-.14 7.36-.6 2.72-7.3 4.31-15.08 6.73-22.5-1.57.09-3.13.22-4.69.39 3.56-1.18 6.72-1.81 10.48-1.38z" class="text-glyph" fill="#e61729"/><path d="M119.41 59.6c.84-.28 1.68-.52 2.54-.71 1.56-.17 3.12-.3 4.69-.39-2.42 7.42-4.01 15.2-6.73 22.5-2.38.46-4.94.48-7.36.6-1.01-3.65-2.1-7.28-3.47-10.81-.72 2.84-1.44 5.69-2.18 8.53l-.72 2.36c-2.53.16-5.08.14-7.62.16-2.19-7.02-4.46-14.02-6.48-21.08 2.46-.04 4.91-.1 7.36-.19 1.2 3.53 2.07 7.11 2.74 10.77 1.38-3.55 2.48-7.19 3.51-10.86 2.6-.11 5.19-.23 7.78-.34 1.06 3.59 1.93 7.22 2.67 10.89 1.43-3.72 2.21-7.6 3.27-11.43z" class="text-invert" fill="#fefefe"/><path d="M44.53 59.28c.46 1.79.9 3.59 1.42 5.36-7.42 2.1-13.52 5.39-19.39 10.36-.65-1.3-1.33-2.58-2.05-3.84 4.07-3.81 8.65-6.54 13.58-9.07l-2.45-.59c2.91-.97 5.87-1.72 8.89-2.22z" fill="#3d4e9e"/><path d="M50.59 60.07c3.55.32 5.76 2.91 7.87 5.49 2.67 3.54 3.33 7.77 2.58 12.09-2.15-3.6-3.46-7.21-6.34-10.34-1.68-2.16-4.46-4.21-4.11-7.24z" fill="#fcfdfe"/><path d="m35.64 61.5 2.45.59c-4.93 2.53-9.51 5.26-13.58 9.07-1.29-1.05-2.67-1.98-4.1-2.84 3.27-1.86 6.61-3.56 10.1-4.98 1.69-.68 3.39-1.3 5.13-1.84z" fill="#273884"/><path class="text-glyph" d="M138.2 61.97c1.97 3.05 1.71 6.38 1.26 9.84-.59 2.07-1.59 2.8-3.8 2.73-.77-3.79-.57-7.82-.11-11.64.88-.32 1.76-.63 2.65-.93z" fill="#e5112a"/><path d="M45.95 64.64c1.58 3.77 3.15 7.54 4.21 11.5-1.18.19-2.36.36-3.54.54-.93 3.17-.73 7.29-1.85 10.14-2.51 1.62-7.1.53-9.89-.17.93 1.48 1.83 3.18 3.1 4.39 1.75 1.64 4.42 2.12 6.66 2.79.36 3.39.77 6.77 1.23 10.15-7.52 1.74-15.31-4.67-19.66-10.19-2.35-2.45-3.96-7.15-7.3-8.18 2.17-.7 4.19-1.15 5.61-3.09 1.79-2.23 2-4.77 2.04-7.52 5.87-4.97 11.97-8.26 19.39-10.36z" fill="#f7b797"/><path d="M45.95 64.64c3.01 2.7 6.23 3.58 8.39 7 5.22 7.85 5.51 17.17 2.85 26.01-1.89 2.7-4.57 3.95-7.24 5.7l1.35-.67.62 1.09-1.06-.54c-1.67.21-3.33.49-4.99.75-.46-3.38-.87-6.76-1.23-10.15-2.24-.67-4.91-1.15-6.66-2.79-1.27-1.21-2.17-2.91-3.1-4.39 2.79.7 7.38 1.79 9.89.17 1.12-2.85.92-6.97 1.85-10.14 1.18-.18 2.36-.35 3.54-.54-1.06-3.96-2.63-7.73-4.21-11.5z" fill="#00a2b4"/><path d="M20.41 68.32c1.43.86 2.81 1.79 4.1 2.84.72 1.26 1.4 2.54 2.05 3.84-.04 2.75-.25 5.29-2.04 7.52-1.42 1.94-3.44 2.39-5.61 3.09l-1.51-.05a42.66 42.66 0 0 1-3.38-.4c2.53-.85 5.05-1.71 7.58-2.58-2.16-.11-4.41-.11-6.53-.53-2.76-1.17-3.42-4.12-2.75-6.82 1.06-1.87 2.77-3.42 4.16-5.06-3.32.92-5.29 2.48-7.51 5.01.91-2.07 1.74-4.2 3.69-5.5 2.29-1.7 5.04-1.36 7.75-1.36z" fill="#e63531"/><path d="M42.68 71.27c.16 2.07-1.53 1.47-2.95 2.11.03-1.73 1.39-4.82 2.95-2.11z" fill="#8d6958"/><path d="M16.48 70.17c-1.39 1.64-3.1 3.19-4.16 5.06-.67 2.7-.01 5.65 2.75 6.82 2.12.42 4.37.42 6.53.53-2.53.87-5.05 1.73-7.58 2.58-3.63-2.08-5.68-5.77-5.05-9.98 2.22-2.53 4.19-4.09 7.51-5.01z" fill="#d03b72"/><path d="m80.29 99.21 3.26.15 2.57.12c-.95.17-1.91.34-2.86.54.16.51.33 1.02.5 1.53l-.08.19c-.25 4.08-.11 8.21-.12 12.3-.05 3.66-.06 7.31-.05 10.96h-3.2c0-3.47 0-6.94.01-10.4 0-4.21.02-8.42-.04-12.63 0-.92.01-1.84.01-2.76z" fill="#606060"/><path d="M56.85 99.25c2.76 3.58 5.3 6.88 9.89 8.13-5.21.27-10.4-.74-14.82-3.61l-.62-1.09c1.96-.98 3.76-2.19 5.55-3.43z" fill="#0175bd"/><path d="M80.28 101.97c.06 4.21.04 8.42.04 12.63l-2.54-.02c-.81-2.98-1.43-6-2.31-8.96 1.45-1.56 2.93-2.66 4.81-3.65z" fill="#014a8a"/><path d="M83.68 101.74c1.6 1.73 3.21 3 3.51 5.48.15 3.05-1.76 4.74-3.63 6.82.01-4.09-.13-8.22.12-12.3z" fill="#0266a3"/><path d="m50.86 103.23 1.06.54c4.42 2.87 9.61 3.88 14.82 3.61 3.02-.18 5.85-.89 8.73-1.76.88 2.96 1.5 5.98 2.31 8.96-8.03.14-16.07-.03-24.1.14-1.3-3.75-2.19-7.57-2.82-11.49z" fill="#dfd7d5"/></svg>
