<svg aria-hidden="true" xmlns="http://www.w3.org/2000/svg" viewBox="0 0 202 47" width="202pt" height="47pt"><path d="M0 0h202v12.24c-2.54.03-5.07-.02-7.61 0-1.85 4.28-3.9 8.46-5.68 12.77-2.47-3.96-4.35-8.59-6.57-12.74-2.58-.05-5.17-.05-7.75.02.59 1.17 1.19 2.33 1.82 3.47-2.93-3.01-7-4.74-11.23-4.18-4.02.45-7.45 2.77-9.59 6.18-4.01-6.49-11.91-8.29-18.21-3.81.12-4.46.08-8.94.05-13.41-2.31-.01-4.74-.23-7.01.12.04 3.86.01 7.72.03 11.59-1.62 0-3.24-.03-4.86-.01-1.84 4.27-3.89 8.44-5.66 12.74-2.42-3.76-4.35-8.46-6.45-12.5-3.31-.73-7.54-.3-10.94-.18-2.84 2.63-5.19 5.7-8.09 8.27-.01-6.68.02-13.36-.01-20.04-2.34-.05-4.68-.08-7.01.02.04 4.79-.03 9.57.05 14.36-6.57-6-16.69-3.76-20.61 4.03-1.68-4.26-6.1-7.25-10.64-7.47-4.53-.15-9.37 2.26-11.5 6.33-3.88-6.24-12.14-8.53-18.21-3.97-1.1-2.71-4.69-1.23-7.06-1.56-.02 4.73-.06 9.47.04 14.2-2.03-3.84-5.7-4.39-9.55-5.18-1.85-.47-2.45-2.22-.92-3.49 1.86-1.56 3.03.23 4.48 1.29 1.69-.59 3.55-.98 5.1-1.89-2.23-5.24-8.66-7.37-13.52-4.33-3.74 2.09-5.16 7.32-2.74 10.91 1.42 1.54 3.01 2.55 5.04 3.07 2.14.75 4.25.41 5.72 2.38-1.06 3.8-5.33 2.87-7.53.65-1.49.81-3.01 1.55-4.5 2.34 3.1 7.14 15 6.98 18.43-.05-.13 4.94-.03 9.89-.06 14.83H0V0z" fill="#2a2d3e"/><path d="M87.23.55c2.33-.1 4.67-.07 7.01-.02.03 6.68 0 13.36.01 20.04 2.9-2.57 5.25-5.64 8.09-8.27 3.4-.12 7.63-.55 10.94.18 2.1 4.04 4.03 8.74 6.45 12.5 1.77-4.3 3.82-8.47 5.66-12.74 1.62-.02 3.24.01 4.86.01.09 2.39-.1 4.66-.5 7.02-4.09 9.27-8.29 18.5-12.47 27.73h-7.55c2.07-4.56 4.16-9.12 6.17-13.71-2.92-5.79-5.78-11.61-8.72-17.38-1.92 2.22-4.03 4.25-5.99 6.44 2.99 4.97 6.97 9.77 10.29 14.6-2.74.06-5.48.1-8.22.01-2.25-3.21-4.39-6.51-6.51-9.82-.82.77-1.62 1.56-2.41 2.36-.22 2.48 0 4.99-.11 7.48-2.33.03-4.67.06-7.01-.03l.07-2.84c-3.27 2.63-7.12 4.08-11.33 3.12-4.99-.93-8.6-4.71-10.16-9.43-5.32-.09-10.65-.05-15.97-.02 1.75 2.35 4.1 4.07 7.15 3.99 2.37.12 4.46-.66 6.72-1.15.72 1.43 1.54 2.8 2.25 4.23-6.87 4.43-17.03 3.47-21.5-3.84-2.14 3.85-6 6.4-10.45 6.51-2.91.12-5.44-1.08-7.85-2.57.2 4.01.06 8.03.1 12.05h-7c.03-4.94-.07-9.89.06-14.83-3.43 7.03-15.33 7.19-18.43.05 1.49-.79 3.01-1.53 4.5-2.34 2.2 2.22 6.47 3.15 7.53-.65-1.47-1.97-3.58-1.63-5.72-2.38-2.03-.52-3.62-1.53-5.04-3.07-2.42-3.59-1-8.82 2.74-10.91 4.86-3.04 11.29-.91 13.52 4.33-1.55.91-3.41 1.3-5.1 1.89-1.45-1.06-2.62-2.85-4.48-1.29-1.53 1.27-.93 3.02.92 3.49 3.85.79 7.52 1.34 9.55 5.18-.1-4.73-.06-9.47-.04-14.2 2.37.33 5.96-1.15 7.06 1.56 6.07-4.56 14.33-2.27 18.21 3.97 2.13-4.07 6.97-6.48 11.5-6.33 4.54.22 8.96 3.21 10.64 7.47 3.92-7.79 14.04-10.03 20.61-4.03-.08-4.79-.01-9.57-.05-14.36z" class="text-glyph" fill="#fff"/><path d="M130.22.66c2.27-.35 4.7-.13 7.01-.12.03 4.47.07 8.95-.05 13.41 6.3-4.48 14.2-2.68 18.21 3.81 2.14-3.41 5.57-5.73 9.59-6.18 4.23-.56 8.3 1.17 11.23 4.18 1.13 2.17 2.24 4.35 3.35 6.52.36 5.54-1.71 10.83-6.73 13.56-6.03 3.51-13.87 1.31-17.44-4.6-1.84 2.74-4.13 4.9-7.37 5.81-3.81 1.17-7.63.11-10.78-2.15-.36.7-.74 1.4-1.13 2.09-1.95.03-3.91.05-5.86-.03-.01-5.01-.02-10.02.02-15.03.05-.89-.12-1.78-.52-2.66.4-2.36.59-4.63.5-7.02-.02-3.87.01-7.73-.03-11.59z" class="text-glyph" fill="#587898"/><path d="M194.39 12.24c2.54-.02 5.07.03 7.61 0v.02C196.69 23.8 191.56 35.45 186.28 47h-7.55c2.07-4.56 4.16-9.12 6.17-13.71-1.78-3.67-3.79-7.24-5.34-11.01-1.11-2.17-2.22-4.35-3.35-6.52-.63-1.14-1.23-2.3-1.82-3.47 2.58-.07 5.17-.07 7.75-.02 2.22 4.15 4.1 8.78 6.57 12.74 1.78-4.31 3.83-8.49 5.68-12.77z" class="text-glyph" fill="#fff"/><path d="M202 12.26V47h-15.72c5.28-11.55 10.41-23.2 15.72-34.74zM107.18 15.91c2.94 5.77 5.8 11.59 8.72 17.38-2.01 4.59-4.1 9.15-6.17 13.71H26.25c-.04-4.02.1-8.04-.1-12.05 2.41 1.49 4.94 2.69 7.85 2.57 4.45-.11 8.31-2.66 10.45-6.51 4.47 7.31 14.63 8.27 21.5 3.84-.71-1.43-1.53-2.8-2.25-4.23-2.26.49-4.35 1.27-6.72 1.15-3.05.08-5.4-1.64-7.15-3.99 5.32-.03 10.65-.07 15.97.02 1.56 4.72 5.17 8.5 10.16 9.43 4.21.96 8.06-.49 11.33-3.12l-.07 2.84c2.34.09 4.68.06 7.01.03.11-2.49-.11-5 .11-7.48.79-.8 1.59-1.59 2.41-2.36 2.12 3.31 4.26 6.61 6.51 9.82 2.74.09 5.48.05 8.22-.01-3.32-4.83-7.3-9.63-10.29-14.6 1.96-2.19 4.07-4.22 5.99-6.44zM29.4 18.4c3.44-1.51 7.5-.46 9.11 3.09 2.43 4.5-1.38 10.4-6.54 9.74-6.41-.2-7.83-10.1-2.57-12.83zM56.02 17.74c2.44.14 4.46 2.52 5.13 4.72-3.85.04-7.72.1-11.57-.03.95-2.79 3.4-4.91 6.44-4.69z" fill="#2a2d3e"/><path d="M83.89 20.08c1.17-.84 2.27-1.75 3.39-2.65-.05 4.75-.07 9.52.02 14.27-1.03-1.04-2.03-2.1-3.09-3.11-2.41 2.23-5.55 3.71-8.67 1.83-4.28-2.58-3.9-9.09.08-11.77 2.99-1.96 5.8-.58 8.27 1.43zM140.4 18.41c3.96-1.86 8.81.18 9.69 4.57 1.13 4.92-3.18 9.27-8.11 8.12-5.71-1.1-6.45-10.23-1.58-12.69zM164.24 18.21c5.35-2.31 9.64 4.07 7.91 8.81-1.1 3.83-6.02 5.63-9.2 2.99-3.97-3.06-2.94-9.43 1.29-11.8z" fill="#2a2d3e"/><path d="M129.75 19.27c.4.88.57 1.77.52 2.66-.04 5.01-.03 10.02-.02 15.03 1.95.08 3.91.06 5.86.03.39-.69.77-1.39 1.13-2.09 3.15 2.26 6.97 3.32 10.78 2.15 3.24-.91 5.53-3.07 7.37-5.81 3.57 5.91 11.41 8.11 17.44 4.6 5.02-2.73 7.09-8.02 6.73-13.56 1.55 3.77 3.56 7.34 5.34 11.01-2.01 4.59-4.1 9.15-6.17 13.71h-61.45c4.18-9.23 8.38-18.46 12.47-27.73z" fill="#2a2d3e"/><path class="text-glyph" d="M143.38 25.36c2.76-1.57 5.3 2.8 2.23 4.28-2.75 1.56-5.29-2.79-2.23-4.28zM164.38 25.36c2.76-1.57 5.3 2.79 2.24 4.28-2.76 1.56-5.3-2.79-2.24-4.28z" fill="#fff"/></svg>
