<svg xmlns="http://www.w3.org/2000/svg" viewBox="0 0 546 51" xml:space="preserve" class="logo-tophermcculloch"><path fill="currentColor" d="M59.1 2.8c-9.5 0-17.1 7.6-17.1 17s7.7 17 17.1 17 17.1-7.6 17.1-17-7.7-17-17.1-17"/><path d="M339.7 2.7c0 .6-10.6 45.2 15.6 46.1 22.1.8 17.1-46.1 17.1-46.1h-32.7z" fill="currentColor"/><path fill="currentColor" d="M16.2 4.5H4l.6 10.3h11.9l-.3-10.3m24.5 0H27.2l-.1 10.3h13.5l.1-10.3M47.7 39.5v5.2l22.6-.1-.2-5.1H47.7M446.2 35.9v6.4l23.3-.1-.2-6.3h-23.1M118.9 4.2h-10.1v45.3h10.1V32.8h-10.1v-9.2h10.1V4.2M140.9 32.8h-10.8v16.7h10.8V32.8m0-28.6h-10.8v19.4h10.8V4.2"/><path fill="currentColor" d="M118.9 23.6v9.2h11.2v-9.2h-11.2"/><path fill="currentColor" d="M108.8 23.6v9.2h10.1v-9.2h-10.1M130.1 23.6v9.2h10.8v-9.2h-10.8"/><path fill="currentColor" d="M519.4 2.3h-10.3v45.2h10.3V30.8h-10.3V20.1h10.3V2.3M542 30.8h-11v16.7h11V30.8m0-28.5h-11v17.8h11V2.3M531 20.1h-11.6v10.7H531V20.1"/><path fill="currentColor" d="M519.4 20.1h-10.3v10.7h10.3V20.1M542 20.1h-11v10.7h11V20.1"/><path fill="currentColor" d="M176.8 4.6h-18.7l.1 8.2h18.6V4.6M457.8 2C449.1 2 442 9 442 17.7s7.1 15.7 15.8 15.7c8.7 0 15.8-7 15.8-15.7S466.5 2 457.8 2M27.1 14.8H16.4l.7 35.5h9.7l.3-35.5"/><path fill="currentColor" d="M27.2 4.5h-11l.2 10.3h10.7l.1-10.3"/><path fill="currentColor" d="m247.7 2.5-15.3 47.2h30.1H249l7.3-19.7-8.6-27.5"/><path fill="currentColor" d="M266.6 2.5 256.3 30l6.2 19.7h18.9L266.6 2.5"/><path fill="currentColor" d="M256.3 30 249 49.7h13.5L256.3 30"/><path fill="currentColor" d="M190.2 5.6c-2.7 0-4.5.3-4.5.3v30.3-22.1L199 32.9c4.6-2.4 8.7-6.6 8.7-13.8 0-11.7-11.1-13.5-17.5-13.5M303.1 13.6S280 15.9 281 33.9c.8 13.4 13.8 15.2 20.3 15.2 2.2 0 3.7-.2 3.7-.2l-1.9-35.3M332.7 1s-27.4 3-26 27c1 18.1 16.7 20.4 24.4 20.4 2.5 0 4.1-.2 4.1-.2L332.7 1M502.1.4s-27.4 3-26 27c1 18.1 16.7 20.4 24.4 20.4 2.5 0 4.1-.2 4.1-.2L502.1.4M86.6 4.5c-3.6 0-6.3.5-6.3.5h9.9L90 36.3c7.2-2.2 15.7-7.1 15.1-17.7-.8-12.1-11.4-14.1-18.5-14.1M389.3 2.2h-11.8l-.1 36.5h11.9V2.2M80.3 5v46h9.5l.1-14.7c-5.1 1.6-9.6 1.8-9.6 1.8V5"/><path fill="currentColor" d="M80.3 5v33.1s4.5-.2 9.6-1.8L90.2 5h-9.9"/><path fill="currentColor" d="M377.4 38.7v10.8-10.8m29.6 0h-17.7v10.8h-11.8H407V38.7"/><path fill="currentColor" d="M389.3 38.7h-11.9v10.8h11.9V38.7"/><path fill="currentColor" d="M422.6 2.1h-11.8v36.7h11.8V2.1"/><path fill="currentColor" d="m440.3 38.7-17.7.1v10.7h-11.8V38.8h-.1l.1 10.7 29.5.1V38.7"/><path fill="currentColor" d="M422.6 38.8h-11.8v10.7h11.8V38.8"/><path fill="currentColor" d="M198.9 32.9c-6.1 3.2-13.3 3.3-13.3 3.3v14h25.5l-12.2-17.3"/><path fill="currentColor" d="M185.7 14.1v22.1s7.1-.1 13.3-3.3l-13.3-18.8"/><path fill="currentColor" d="M158.1 4.6h-9.4l-.1 45.2H176v-13l-8.9.1-.1-13.2h-8.6l-.2-10.9h-9.5V4.6h9.4"/><path fill="currentColor" d="M158.1 4.6h-9.4v8.2h9.5l-.1-8.2"/></svg>
