<svg class="logo-themessearch" aria-hidden="true" xmlns="http://www.w3.org/2000/svg" viewBox="0 0 742 120" width="742pt" height="160"><path d="M0 0h49.48c-2.84 1.17-5.75 2.07-8.7 2.9C23.04 8.54 8.57 22.85 2.75 40.54c-.78 2.4-1.34 4.74-2.75 6.89V0z" fill="#2a2d3e"/><path d="M49.48 0H68.6c2.58 1.1 5.15 1.99 7.86 2.7 9.74 2.8 17.97 8.39 25.21 15.36-.92.16-1.84.34-2.74.55l-1.5.34 1.73-2.03C86.7 4.33 67.35-1.38 49.99 1.56 26.71 4.72 7.1 23.28 1.85 46.06 1.22 50.28.49 54.5 0 58.74V47.43c1.41-2.15 1.97-4.49 2.75-6.89 5.82-17.69 20.29-32 38.03-37.64 2.95-.83 5.86-1.73 8.7-2.9z" fill="#78ff7e"/><path class="bg" d="M68.6 0H742v55.18c-.74-4.68-1.91-9.31-5.83-12.37-4.15-3.12-9.21-3.23-14.18-2.66-3.65.59-6.3 2.65-9.02 4.99.05-8.3.05-16.6 0-24.9-4.56-.01-9.13-.14-13.67.08-.27 23.2-.06 46.45-.11 69.66 4.6.03 9.21.02 13.81.02V55.18c3.51-4.12 9.21-5.54 13.58-1.86 1.78 2.33 1.51 4.9 1.64 7.68-.01 9.66-.03 19.32 0 28.98 4.59.03 9.18.02 13.78.02v30H0V71.69c2.46 8.94 6.34 19.07 13.15 25.6 3.8 4.25 7.98 8.71 12.77 11.83 6.58 4.3 13.91 7.4 21.61 9.04 4.37.79 9.04.52 13.47.57 3.91-.04 8.25.11 12.02-.97 9.57-2.71 18.76-6.72 26-13.72-4.2-4.38-8.46-8.7-12.9-12.84-9.1 8.18-21.86 11.75-33.87 9.47-8.98-1.96-17.38-6.35-23.12-13.67-3.64-4.98-7.11-10.89-8.33-16.99-.63-4.28-.5-8.7-.39-13.01 0-8.1 4.96-15.87 9.46-22.3.71-.78 1.41-1.58 2.11-2.37C38.5 26.82 47.24 21.98 56 22.28c5.67.05 11.42-.52 16.71 1.56 5.09 1.57 8.88 4.67 13.5 7.12.79 1.1 1.57 2.2 2.38 3.29 3.62 4.2 6.86 8.36 8.46 13.79 4.12 11.11 2.78 23.68-3.28 33.81-.6 1.17-1.58 2.62-1.4 3.98 1.1 1.98 3.06 3.57 4.63 5.18 2.35 2.21 4.49 4.89 7.15 6.71 1.64-.01 2.18-1.17 3.07-2.3 7.07-10.8 12.11-23.3 11.36-36.42.38-8.69-2.03-16.77-5.26-24.74-2.93-5.79-6.52-12.08-11.65-16.2C94.43 11.09 86.2 5.5 76.46 2.7c-2.71-.71-5.28-1.6-7.86-2.7z" fill="#2a2d3e"/><path d="m99.16 16.92-1.73 2.03 1.5-.34c-1.21.83-2.33 1.73-3.41 2.72l.23-1.29C92.13 23 89.13 26.6 85.6 29.67c-5.89-4.11-12.42-7.92-19.74-8.45-6.71-.51-14.32-.63-20.67 1.85-5.15 2.34-10.04 4.28-13.21 9.26-.7.79-1.4 1.59-2.11 2.37-6.84 6.16-10.14 16.37-11.09 25.28-.12 9.88 3.7 19.99 9.94 27.63-3.25 4.53-7.66 8.4-11.72 12.21-1.84-.34-3.28-2.46-4.59-3.71-1.89-3.02-3.9-5.97-5.71-9.05-2.21-4.97-4.96-10.57-5.32-16.04C1 67.32.14 63.73.01 60.01L0 59.88v-1.14c.49-4.24 1.22-8.46 1.85-12.68C7.1 23.28 26.71 4.72 49.99 1.56 67.35-1.38 86.7 4.33 99.16 16.92z" fill="#fff"/><path d="M101.67 18.06c5.13 4.12 8.72 10.41 11.65 16.2 3.23 7.97 5.64 16.05 5.26 24.74.75 13.12-4.29 25.62-11.36 36.42-.89 1.13-1.43 2.29-3.07 2.3-2.66-1.82-4.8-4.5-7.15-6.71-1.57-1.61-3.53-3.2-4.63-5.18-.18-1.36.8-2.81 1.4-3.98 6.06-10.13 7.4-22.7 3.28-33.81-1.6-5.43-4.84-9.59-8.46-13.79-1.2-1.7-2.07-3.16-.64-5.09 2.51-2.63 5.23-5.03 7.57-7.83 1.08-.99 2.2-1.89 3.41-2.72.9-.21 1.82-.39 2.74-.55z" fill="#24aa29"/><path d="m95.75 20.04-.23 1.29c-2.34 2.8-5.06 5.2-7.57 7.83-1.43 1.93-.56 3.39.64 5.09-.81-1.09-1.59-2.19-2.38-3.29-4.62-2.45-8.41-5.55-13.5-7.12-5.29-2.08-11.04-1.51-16.71-1.56-8.76-.3-17.5 4.54-24.02 10.05 3.17-4.98 8.06-6.92 13.21-9.26 6.35-2.48 13.96-2.36 20.67-1.85 7.32.53 13.85 4.34 19.74 8.45 3.53-3.07 6.53-6.67 10.15-9.63zM197.75 20.19c3 .01 6.01.02 9.02.09.11 8.39.08 16.79.02 25.17 3.06-2.56 6.12-4.77 10.2-5.32 5.23-.54 10.55-.49 14.74 3.12 4.1 3.7 4.85 9.5 5.01 14.72.04 10.67.01 21.34 0 32-3.06.03-6.12.03-9.18.03-.11-10.33.04-20.68-.06-31.01-.23-3.76-.26-7.49-3.74-9.79-5.99-3.68-15.03.08-16.84 6.76-.24 11.32.01 22.69-.1 34.02-3.05.02-6.1.02-9.15.02-.02-23.27-.16-46.54.08-69.81zM699.3 20.32c4.54-.22 9.11-.09 13.67-.08.05 8.3.05 16.6 0 24.9 2.72-2.34 5.37-4.4 9.02-4.99 4.97-.57 10.03-.46 14.18 2.66 3.92 3.06 5.09 7.69 5.83 12.37V90c-4.6 0-9.19.01-13.78-.02-.03-9.66-.01-19.32 0-28.98-.13-2.78.14-5.35-1.64-7.68-4.37-3.68-10.07-2.26-13.58 1.86V90c-4.6 0-9.21.01-13.81-.02.05-23.21-.16-46.46.11-69.66z" fill="#fff"/><path d="M72.49 32.7c4.58 2.46 9.38 4.9 12.17 9.48 2.9 4.65 5.85 10.25 6.12 15.81.27 5.14.25 10.05-1.97 14.82-2.41 5.14-4.92 10.77-10.02 13.76-4.21 2.52-8.89 5.07-13.75 5.94-6 .73-11.9.65-17.44-2.07-4.29-2.15-9.71-4.43-12.37-8.6-3.11-4.71-5.98-9.22-7.06-14.85-1.52-5.87-.49-12.01 2.32-17.32-1.42 5.44-2.7 10.66-1.76 16.34.47 3.17 2 6.21 3.24 9.15 13.84-13.65 27.62-27.41 41.24-41.28-2.52-.98-5.03-1.95-7.49-3.05-4.81-.31-9.25-.8-13.93.74-5.09 1.7-10.48 4.09-14.47 7.77-2.39 2.67-4.01 6.01-6.16 8.88 1.59-3.91 3.35-7.54 6.65-10.32 4.6-3.8 10.44-6.25 16.19-7.71 6.09-1.74 12.87-.05 18.49 2.51z" fill="#78ff7e"/><path d="M170.63 29c3.05 0 6.1 0 9.15.03.02 3.89.01 7.79.07 11.68 3.01 0 6.02.01 9.03.08-.01 2.37-.02 4.74-.06 7.11-3 .05-6.01.06-9.02.07 0 9.34-.01 18.69-.01 28.04.13 1.88-.11 4.38 1.39 5.79 1.81 1.96 5.42.93 7.82.95-.01 2.46-.01 4.92 0 7.39-4.8.99-10.52 1.87-14.57-1.6-3.53-3.55-3.66-7.81-3.83-12.53-.04-9.34 0-18.68 0-28.02-2.92-.03-5.84-.04-8.76-.05-.03-2.4-.04-4.8-.04-7.2 2.92-.02 5.84-.03 8.76-.06.03-3.89.02-7.79.07-11.68zM65.72 30.83c2.46 1.1 4.97 2.07 7.49 3.05-13.62 13.87-27.4 27.63-41.24 41.28-1.24-2.94-2.77-5.98-3.24-9.15-.94-5.68.34-10.9 1.76-16.34l.25-.76.42-.69c2.15-2.87 3.77-6.21 6.16-8.88 3.99-3.68 9.38-6.07 14.47-7.77 4.68-1.54 9.12-1.05 13.93-.74z" fill="#fff"/><path d="M29.87 34.7c-4.5 6.43-9.46 14.2-9.46 22.3-.11 4.31-.24 8.73.39 13.01 1.22 6.1 4.69 12.01 8.33 16.99l-.41.61c-6.24-7.64-10.06-17.75-9.94-27.63.95-8.91 4.25-19.12 11.09-25.28z" fill="#78ff7e"/><path d="M262.46 40.47c7.41-1.5 15.33-.5 20.45 5.57 5.4 6.44 5.29 14.11 5.41 22.06-10.96.03-21.93-.02-32.9.02.46 3.4.97 6.59 3.03 9.43 2.88 4.2 7.51 6.2 12.57 5.61 4.93-.22 7.91-3.19 11.13-6.51 2.01 1.44 3.96 2.95 5.9 4.49-2.14 2.6-4.09 5.11-7.06 6.84-5.13 3.03-11.75 3.58-17.51 2.5-7.1-1.4-13.12-6.67-15.53-13.47-2.3-6.53-2.13-13.87-.46-20.52 1.86-7.32 7.56-14 14.97-16.02zM322.02 39.96c5.25.11 9.07 2.69 11.97 6.92 3.23-3.56 7.08-6.27 11.97-6.8 5.01-.41 10.04-.42 14.28 2.67 4.47 3.3 5.76 8.97 5.76 14.25 0 11 0 21.99-.01 32.99-3 .01-5.99.01-8.99.01-.01-10 .01-20 .01-30-.08-3.47-.42-8.26-3.4-10.59-4.44-2.81-11.64-2.09-14.95 2.24-2.35 2.75-2.72 6.88-2.68 10.35.08 9.33.04 18.67.04 28-3 0-6.01 0-9.01-.01-.02-10 .01-20 0-29.99-.09-3.25-.33-6.89-2.56-9.47-2.97-3.04-7.29-3.08-11.21-2.3-3.73 1.04-7.42 4.63-7.11 8.74-.01 11 .04 22.02-.01 33.03-3.02 0-6.04 0-9.06-.01-.02-16.41-.01-32.81 0-49.22 2.93-.06 5.86-.06 8.8-.02.03 1.48.06 2.96.08 4.43 4.97-4.37 9.46-5.68 16.08-5.22zM391.49 40.6c7.25-1.69 15.63-.74 20.75 5.2 5.37 6.27 5.68 14.42 5.68 22.27-11.05.09-22.11-.01-33.16.06.7 4.02 1.43 7.72 4.33 10.81 2.94 3.23 6.55 4.61 10.92 4.26 5.23-.08 8.33-3.19 11.87-6.53 1.86 1.48 3.72 2.94 5.58 4.41-2.7 3.93-6.04 7.12-10.67 8.6-6.8 2.22-15.17 1.79-21.22-2.26-5.53-3.64-8.86-9.87-9.5-16.38-.32-3.68-.28-7.41.14-11.08 1.21-8.71 6.72-16.6 15.28-19.36zM444.99 39.89c6.6-.14 13.36 2.51 16.7 8.47 1.39 2.39 1.41 4.85 1.56 7.52-2.92-.01-5.83-.02-8.75-.02-1-3.41-2.37-6.13-5.86-7.5-4.1-1.44-10.7-1.03-12.79 3.49-1.49 3.03.25 6.01 3.17 7.22 6.75 2.8 14.85 2.84 20.87 8.03 5.31 4.57 5.1 13.27.42 18.21-4.26 4.7-11.23 6.02-17.31 5.63-6.06-.25-12.54-2.71-16.05-7.89-1.86-2.67-2.23-5.57-2.72-8.69 3.03-.12 6.07-.12 9.1-.07.95 4.2 2.74 7.02 6.97 8.41 4.11.92 9.86.94 12.92-2.48 2.39-3 1.07-7.48-2.39-9.03-6.66-3.16-14.08-2.7-20.46-7.58-5.5-4.05-5.7-12.66-1.31-17.61 4.03-4.68 9.9-6.37 15.93-6.11zM490 39.91c6.96-.3 13.92.96 18.77 6.35 2.59 2.83 3.24 6.23 3.47 9.94-4.56.06-9.11.08-13.66-.04-.56-1.5-.92-3.52-2.19-4.6-2.08-1.83-5.46-2.03-7.98-1.14-1.96.78-4.14 3.08-3.19 5.33 1.18 2.32 4 3.07 6.31 3.74 5.5 1.42 10.76 2.05 15.52 5.47 6.53 4.37 6.96 15.15 1.25 20.34-4.33 4.41-11.33 5.87-17.3 5.68-6.69-.07-13.86-2.44-17.95-8.01-2.06-2.7-2.59-5.74-3.17-8.99 4.37-.06 8.73-.05 13.09-.05.77 1.67 1.34 4.12 2.91 5.21 3.12 2.13 7.49 2.49 10.81.59 1.33-.92 2.59-2.64 1.91-4.32-.86-2.42-3.87-3.35-6.09-4.03-6.07-1.7-12.82-2.71-17.44-7.42-3.71-3.54-4.16-9.69-2.37-14.24 3.01-6.57 10.35-9.84 17.3-9.81zM557.47 46.47c5.82 6.85 5.63 15.02 5.5 23.51-10.28.06-20.56-.06-30.83.06 1.27 4.55 3.92 8.31 8.8 9.22 5.74 1.28 10.49-1.12 14.37-5.19 2.37 2.59 4.69 5.23 6.99 7.88-7.14 9.09-19.83 11.11-30.26 7.13-5.99-2.43-10.68-7.39-12.63-13.57-2.01-6.4-1.7-13.63.2-20.03 2.07-6.89 7.28-12.51 14.23-14.6 8.3-2.1 17.72-1.26 23.63 5.59zM590 39.9c5.99-.13 11.95 1.43 16 6.09 2.7 3.11 3.62 6.97 3.78 11 .2 8-.13 16.02.13 24.02.09 3.15 1.11 5.94 2.05 8.9-4.33.06-8.68.25-13 .03-1.91.21-1.81-2.1-2.53-3.35-6.36 5.83-16.93 5.87-23.6.61-7.33-5.6-6.68-18.36.88-23.5 6.22-4.49 15.15-4.02 22.47-4.13-.31-2.06-.39-4.49-1.38-6.35-1.88-3.17-6.5-3.56-9.54-1.99-1.89 1.07-2.15 2.9-2.93 4.75-4.54.03-9.08.04-13.62 0 .28-3.37.95-6.42 3.17-9.08 4.35-5.16 11.57-7.2 18.12-7zM639.25 40.27c2.57-.56 5.43-.24 8.04-.16.08 4.54-.05 9.08-.18 13.62-3.4-.21-6.61-.68-9.9.51-2.43 1.04-4.47 2.85-4.27 5.72-.06 10 .02 20.02-.02 30.03-4.62.02-9.24.02-13.86 0-.02-16.4-.01-32.81 0-49.21 4.35-.09 8.7-.07 13.06-.06l.18 4.42c2.18-2.03 3.95-4.04 6.95-4.87zM676.04 40.05c6.02.6 11.71 3.9 14.59 9.33 1.8 3.2 2.21 6.63 2.37 10.23-4.24.11-8.47.06-12.7.09-1.01-2.93-1.44-6.06-4.55-7.52-3.77-2.08-8.51-.8-10.55 3.02-1.77 3.49-1.86 7.97-1.8 11.8.23 3.48.5 7.85 3.12 10.47 2.58 2.64 6.84 2.62 9.97 1.02 2.3-1.01 2.93-3.95 3.86-6.07 4.23.04 8.45-.01 12.68.09-.32 4.23-1.26 8.16-4.13 11.42-5.6 6.84-15.77 8.36-23.92 6.09-7.12-1.89-12.35-7.77-14.2-14.8-1.47-5.85-1.53-12.11-.42-18.03 1.3-6.32 5.09-11.98 10.89-14.99 4.67-2.43 9.64-2.52 14.79-2.15z" fill="#fff"/><path d="M275.85 51.11c2.23 2.8 2.75 5.99 3.34 9.41-7.79-.01-15.58-.01-23.37 0 1.05-4.7 2.6-9.18 6.99-11.74 4.05-2.12 10.19-1.58 13.04 2.33zM405.98 51.99c1.82 2.59 2.14 5.46 2.69 8.49-7.78.04-15.55.08-23.32-.02.91-4.32 2.35-8.36 6.01-11.1 4.4-3.03 11.83-2.33 14.62 2.63zM547.25 53.75c1.68 1.94 1.75 4.1 2.25 6.5-5.72.05-11.45.07-17.18-.02.86-2.71 1.43-5.22 3.72-7.12 3.2-2.7 8.37-2.41 11.21.64zM0 59.88l.01.13c.13 3.72.99 7.31 1.37 11.01.36 5.47 3.11 11.07 5.32 16.04 1.81 3.08 3.82 6.03 5.71 9.05l.74 1.18C6.34 90.76 2.46 80.63 0 71.69V59.88zM596 67.94c0 2.63 0 5.27.03 7.9-3.15 3.34-6.93 5.42-11.57 3.71-3.85-1.75-3.59-7.2-.43-9.49 3.17-2.4 8.2-2.02 11.97-2.12z" fill="#2a2d3e"/><path d="m28.72 87.61.41-.61c5.74 7.32 14.14 11.71 23.12 13.67 12.01 2.28 24.77-1.29 33.87-9.47 4.44 4.14 8.7 8.46 12.9 12.84-7.24 7-16.43 11.01-26 13.72-3.77 1.08-8.11.93-12.02.97-4.43-.05-9.1.22-13.47-.57-7.7-1.64-15.03-4.74-21.61-9.04-4.79-3.12-8.97-7.58-12.77-11.83l-.74-1.18c1.31 1.25 2.75 3.37 4.59 3.71 4.06-3.81 8.47-7.68 11.72-12.21z" fill="#24aa29"/></svg>
