<svg aria-hidden="true" class="prefix__feature__icon" xmlns="http://www.w3.org/2000/svg" width="84" height="66" xmlns:xlink="http://www.w3.org/1999/xlink" viewBox="0 0 84 66"><defs><path id="prefix__a" d="M.024 20.845s4.556 4.962 7.712 7.018c1.005.654 8.483 4.525 13.284-8.798 2.627-7.294 2.67-12.728-3.3-15.045C14.144 2.63 15.422.033 15.422.033"/><path id="prefix__c" d="M20.91 25.13V6.327c0-4.637-4.68-6.3-10.447-6.3C4.693.027.02 1.69.02 6.327v19.027"/><path id="prefix__e" d="M20.898 25.112V6.308c0-4.638-4.677-6.3-10.445-6.3C4.685.01.01 1.67.01 6.31v19.026"/><path id="prefix__g" d="M3.74 18.912C7.805 12.406 7.372 6.91 1.952 4.028-1.292 2.302.492.025.492.025"/><path id="prefix__j" d="M55.254 56.375s-6.753.078-31.43-.726C-.85 54.84.062 46.14.024 33.64V3.57C.024 1.027 2.264 0 5.027 0s5.007 1.027 5.007 3.57c0 0 .637 8.592 1.187 13.82 1.24 18.986 24.53-3.124 41.47-2.092 15.39.94 27.51 6.165 27.51 18.585 0 12.423-7.94 22.492-24.94 22.492z"/><path id="prefix__l" d="M20.902 19.698V6.306c0-4.637-4.678-6.302-10.446-6.302S.013 1.67.013 6.306V26.69"/><path id="prefix__n" d="M20.9 28.374V6.304C20.9 1.666 16.225 0 10.457 0 4.687.002.013 1.667.013 6.302v12.682"/><path id="prefix__p" d="M.03 25.464s6.12 4.14 9.985 5.557c1.232.46 10.12 2.77 11.56-12.33.788-8.26-.63-13.97-7.52-15.01C9.93 3.06 10.568.03 10.568.03"/><linearGradient id="prefix__h" x1="132.922%" x2="598.486%" y1="24.926%" y2="-91.619%"><stop stop-color="#808FD0" offset="0%"/><stop stop-color="#505E9B" offset="100%"/></linearGradient></defs><g fill="none" fill-rule="evenodd"><g transform="matrix(1 0 0 -1 14.056 30.686)"><mask id="prefix__b" fill="#fff"><use xlink:href="#prefix__a"/></mask><path fill="#FFF" fill-rule="nonzero" d="M.024 20.845s4.556 4.962 7.712 7.018c1.005.654 8.483 4.525 13.284-8.798 2.627-7.294 2.67-12.728-3.3-15.045C14.144 2.63 15.422.033 15.422.033" mask="url(#prefix__b)"/></g><path fill="currentColor" fill-rule="nonzero" stroke="currentColor" d="M21.355 2.218c-3.2 2.086-7.67 6.936-7.858 7.14a.709.709 0 0 0 .075 1.035c.32.265.81.234 1.09-.07.044-.05 4.53-4.918 7.567-6.897.09-.06 2.3-1.47 5-.622 2.84.893 5.3 4.024 7.11 9.053 2.88 8.007 2.03 12.234-2.86 14.13-1.41.55-2.34 1.343-2.76 2.363-.56 1.345.03 2.56.05 2.613.17.364.63.52 1.01.352.38-.165.55-.598.38-.965 0-.007-.33-.728-.01-1.483.26-.624.9-1.137 1.9-1.523 7.37-2.864 5.87-10.034 3.73-15.962-2.004-5.557-4.72-8.91-8.085-9.968-3.36-1.058-6.07.612-6.37.804"/><g transform="matrix(1 0 0 -1 21.12 61.078)"><mask id="prefix__d" fill="#fff"><use xlink:href="#prefix__c"/></mask><path fill="#FFF" fill-rule="nonzero" d="M20.91 25.13V6.327c0-4.637-4.68-6.3-10.447-6.3C4.693.027.02 1.69.02 6.327v19.027" mask="url(#prefix__d)"/></g><path fill="currentColor" fill-rule="nonzero" stroke="currentColor" d="M20.37 35.725v19.027c0 4.535 3.98 7.03 11.214 7.03 7.232 0 11.216-2.495 11.216-7.03V35.947c0-.405-.346-.733-.772-.733-.426 0-.77.328-.77.733v18.805c0 4.6-5.26 5.566-9.674 5.566-4.412 0-9.672-.965-9.672-5.566V35.725c0-.404-.345-.732-.77-.732-.427 0-.773.328-.773.732"/><g transform="matrix(1 0 0 -1 53.082 61.29)"><mask id="prefix__f" fill="#fff"><use xlink:href="#prefix__e"/></mask><path fill="#FFF" fill-rule="nonzero" d="M20.898 25.112V6.308c0-4.638-4.677-6.3-10.445-6.3C4.685.01.01 1.67.01 6.31v19.026" mask="url(#prefix__f)"/></g><path fill="currentColor" fill-rule="nonzero" stroke="currentColor" d="M52.32 54.98c0 4.535 3.983 7.032 11.216 7.032 3.255 0 5.866-.505 7.76-1.502 2.26-1.19 3.456-3.102 3.456-5.53V36.178c0-.405-.346-.732-.772-.732-.426 0-.77.327-.77.732V54.98c0 1.917-.872 3.306-2.664 4.25-1.64.862-4.062 1.317-7.01 1.317-4.413 0-9.673-.966-9.673-5.566V35.96c0-.405-.346-.733-.772-.733-.42 0-.77.328-.77.733v19.02z"/><g transform="matrix(1 0 0 -1 29.503 29.176)"><mask id="prefix__i" fill="#fff"><use xlink:href="#prefix__g"/></mask><path fill="url(#prefix__h)" fill-rule="nonzero" d="M3.74 18.912C7.805 12.406 7.372 6.91 1.952 4.028-1.292 2.302.492.025.492.025" mask="url(#prefix__i)"/></g><path fill="#080604" fill-rule="nonzero" d="M32.848 9.634a.71.71 0 0 0-.27 1.004c2.264 3.62 3.074 6.9 2.344 9.48-.52 1.834-1.814 3.31-3.843 4.392-1.29.682-2.05 1.54-2.28 2.554-.31 1.377.54 2.478.57 2.524.25.323.73.388 1.07.15a.707.707 0 0 0 .16-1.02c-.01-.006-.48-.64-.31-1.362.133-.577.643-1.105 1.514-1.568 2.41-1.28 3.95-3.06 4.58-5.29.84-2.972-.025-6.64-2.507-10.608-.213-.348-.69-.462-1.053-.256"/><g transform="matrix(1 0 0 -1 1.75 62.026)"><mask id="prefix__k" fill="#fff"><use xlink:href="#prefix__j"/></mask><path fill="#FFF" fill-rule="nonzero" d="M55.254 56.375s-6.753.078-31.43-.726C-.85 54.84.062 46.14.024 33.64V3.57C.024 1.027 2.264 0 5.027 0s5.007 1.027 5.007 3.57c0 0 .637 8.592 1.187 13.82 1.24 18.986 24.53-3.124 41.47-2.092 15.39.94 27.51 6.165 27.51 18.585 0 12.423-7.94 22.492-24.94 22.492" mask="url(#prefix__k)"/></g><path fill="currentColor" fill-rule="nonzero" stroke="currentColor" d="M2.543 58.456v-30.07l.002-1.324C2.55 15.5 2.553 7.86 25.6 7.11c24.356-.795 31.326-.728 31.394-.728h.01c7.76 0 14.083 2.2 18.286 6.363 3.848 3.81 5.88 9.134 5.88 15.398 0 13.406-14.566 17.11-26.785 17.854-6.432.39-14.018-2.737-20.71-5.498-7.505-3.1-13.985-5.77-17.975-3.45-2.107 1.22-3.252 3.69-3.502 7.54-.542 5.15-1.18 13.72-1.187 13.81 0 2.52-2.65 2.89-4.23 2.89-1.58 0-4.23-.37-4.23-2.84zm23.005-52.81C1.01 6.446 1.006 15.092 1.002 27.06L1 28.386v30.07c0 2.694 2.16 4.304 5.776 4.304 3.62 0 5.78-1.61 5.78-4.304.003-.036.64-8.59 1.182-13.746.22-3.365 1.125-5.45 2.77-6.41 3.306-1.92 9.738.733 16.55 3.542 6.854 2.827 14.62 6.03 21.425 5.617 18.207-1.12 28.232-7.98 28.232-19.32 0-6.65-2.183-12.33-6.31-16.41-4.502-4.46-11.21-6.82-19.402-6.82h.01c-.068 0-7.055-.07-31.465.73z"/><g transform="matrix(1 0 0 -1 27.683 64.272)"><mask id="prefix__m" fill="#fff"><use xlink:href="#prefix__l"/></mask><path fill="#FFF" fill-rule="nonzero" d="M20.902 19.698V6.306c0-4.637-4.678-6.302-10.446-6.302S.013 1.67.013 6.306V26.69" mask="url(#prefix__m)"/></g><path fill="currentColor" fill-rule="nonzero" stroke="currentColor" d="M26.924 37.583v20.383c0 4.536 3.984 7.034 11.215 7.034 7.23 0 11.21-2.498 11.21-7.034V44.574c0-.404-.35-.732-.77-.732-.43 0-.77.328-.77.732v13.392c0 4.604-5.26 5.57-9.68 5.57-4.41 0-9.67-.966-9.67-5.57V37.583c0-.404-.35-.732-.77-.732-.43 0-.77.33-.77.74"/><g transform="matrix(1 0 0 -1 59.646 63.746)"><mask id="prefix__o" fill="#fff"><use xlink:href="#prefix__n"/></mask><path fill="#FFF" fill-rule="nonzero" d="M20.9 28.374V6.304C20.9 1.666 16.225 0 10.457 0 4.687.002.013 1.667.013 6.302v12.682" mask="url(#prefix__o)"/></g><path fill="currentColor" fill-rule="nonzero" stroke="currentColor" d="M79.775 57.443c0 4.602-5.26 5.568-9.673 5.568-4.41 0-9.67-.96-9.67-5.56V44.76c0-.403-.347-.73-.773-.73-.43 0-.78.327-.78.73v12.683c0 4.535 3.98 7.033 11.21 7.033s11.21-2.498 11.21-7.033v-22.07c0-.406-.35-.733-.77-.733-.43 0-.78.327-.78.732v22.07z"/><path fill="#FFF" fill-rule="nonzero" d="M16.353 22.15c.19-.028.415.2.497.514.082.31-.007.587-.2.617-.194.03-.418-.2-.5-.51-.08-.31.01-.58.203-.62"/><path fill="#363254" fill-rule="nonzero" d="M35.283 35.22c-.07.348.17.632.53.632h2.066c.36 0 .71-.284.77-.63l.55-2.792c.07-.347.42-.63.78-.63h2.23c1.27 0 2.32-.133 3.15-.397a6.063 6.063 0 0 0 2.25-1.327 6.88 6.88 0 0 0 1.37-1.693c.35-.616.6-1.297.74-2.042.35-1.8 0-3.15-.81-4.22-1.02-1.34-3.63-1.41-3.63-1.41-.357-.05-.94-.09-1.3-.09H38.8c-.36 0-.71.29-.78.64l-2.74 13.97zm8.098-12.21c1.29 0 2.14.234 2.57.7.43.465.53 1.265.31 2.398-.23 1.18-.68 2.024-1.35 2.528s-2.39.686-2.39.686c-.36.04-.94.07-1.3.07h-.74c-.36 0-.6-.284-.53-.63l1.01-5.12a.828.828 0 0 1 .78-.632h1.66z"/><path stroke="#FFF" stroke-width="5.291" d="M35.283 35.22c-.07.348.17.632.53.632h2.066c.36 0 .71-.284.77-.63l.55-2.792c.07-.347.42-.63.78-.63h2.23c1.27 0 2.32-.133 3.15-.397a6.063 6.063 0 0 0 2.25-1.327 6.88 6.88 0 0 0 1.37-1.693c.35-.616.6-1.297.74-2.042.35-1.8 0-3.15-.81-4.22-1.02-1.34-3.63-1.41-3.63-1.41-.357-.05-.94-.09-1.3-.09H38.8c-.36 0-.71.29-.78.64l-2.74 13.97zm8.098-12.21c1.29 0 2.14.234 2.57.7.43.465.53 1.265.31 2.398-.23 1.18-.68 2.024-1.35 2.528s-2.39.686-2.39.686c-.36.04-.94.07-1.3.07h-.74c-.36 0-.6-.284-.53-.63l1.01-5.12a.828.828 0 0 1 .78-.632h1.66z"/><path fill="#363254" fill-rule="nonzero" d="M52.995 17.182c.068-.346.418-.63.778-.63h2.04c.36 0 .6.284.53.63l-.55 2.79c-.07.35.17.632.53.632h1.673c.36 0 .947.03 1.304.067 0 0 2.442.03 3.234.9.645.72.926 1.69.64 3.14L61.9 31.17a.828.828 0 0 1-.78.632h-2.093c-.36 0-.6-.29-.53-.635l1.084-5.484c.07-.345.15-.92.18-1.272 0 0 .05-.65-.21-.92-.26-.28-.82-.42-1.68-.42h-2.03c-.36 0-.71.28-.78.63l-1.47 7.47c-.07.35-.42.63-.78.63h-2.04c-.36 0-.6-.28-.53-.63L53 17.18"/><path stroke="#FFF" stroke-width="5.291" d="M52.995 17.182c.068-.346.418-.63.778-.63h2.04c.36 0 .6.284.53.63l-.55 2.79c-.07.35.17.632.53.632h1.673c.36 0 .947.03 1.304.067 0 0 2.442.03 3.234.9.645.72.926 1.69.64 3.14L61.9 31.17a.828.828 0 0 1-.78.632h-2.093c-.36 0-.6-.29-.53-.635l1.084-5.484c.07-.345.15-.92.18-1.272 0 0 .05-.65-.21-.92-.26-.28-.82-.42-1.68-.42h-2.03c-.36 0-.71.28-.78.63l-1.47 7.47c-.07.35-.42.63-.78.63h-2.04c-.36 0-.6-.28-.53-.63L53 17.18z"/><path fill="#363254" fill-rule="nonzero" d="M63.347 35.22c-.07.348.17.632.53.632h2.066c.36 0 .71-.284.78-.63l.55-2.792c.068-.347.42-.63.778-.63h2.24c1.28 0 2.33-.133 3.15-.397a6.063 6.063 0 0 0 2.25-1.327 6.703 6.703 0 0 0 1.38-1.693c.35-.616.6-1.297.75-2.042.36-1.8.04-3.17-.81-4.22-1.04-1.31-3.62-1.42-3.62-1.42-.35-.05-.94-.09-1.3-.09H66.9c-.36 0-.71.29-.778.64l-2.76 13.99zm8.098-12.21c1.282 0 2.137.234 2.565.7.426.465.528 1.265.304 2.398-.234 1.18-.68 2.024-1.348 2.528-.667.504-2.39.686-2.39.686-.358.04-.945.07-1.305.07h-.74c-.36 0-.59-.284-.53-.63l1.01-5.12a.828.828 0 0 1 .78-.632h1.66z"/><path stroke="#FFF" stroke-width="5.291" d="M63.347 35.22c-.07.348.17.632.53.632h2.066c.36 0 .71-.284.78-.63l.55-2.792c.068-.347.42-.63.778-.63h2.24c1.28 0 2.33-.133 3.15-.397a6.063 6.063 0 0 0 2.25-1.327 6.703 6.703 0 0 0 1.38-1.693c.35-.616.6-1.297.75-2.042.36-1.8.04-3.17-.81-4.22-1.04-1.31-3.62-1.42-3.62-1.42-.35-.05-.94-.09-1.3-.09H66.9c-.36 0-.71.29-.778.64l-2.76 13.99zm8.098-12.21c1.282 0 2.137.234 2.565.7.426.465.528 1.265.304 2.398-.234 1.18-.68 2.024-1.348 2.528-.667.504-2.39.686-2.39.686-.358.04-.945.07-1.305.07h-.74c-.36 0-.59-.284-.53-.63l1.01-5.12a.828.828 0 0 1 .78-.632h1.66z"/><path fill="currentColor" fill-rule="nonzero" d="M35.283 35.22c-.07.348.17.632.53.632h2.066c.36 0 .71-.284.77-.63l.55-2.792c.07-.347.42-.63.78-.63h2.23c1.27 0 2.32-.133 3.15-.397a6.063 6.063 0 0 0 2.25-1.327 6.88 6.88 0 0 0 1.37-1.693c.35-.616.6-1.297.74-2.042.35-1.8 0-3.15-.81-4.22-1.02-1.34-3.63-1.41-3.63-1.41-.357-.05-.94-.09-1.3-.09H38.8c-.36 0-.71.29-.78.64l-2.74 13.97zm8.098-12.21c1.29 0 2.14.234 2.57.7.43.465.53 1.265.31 2.398-.23 1.18-.68 2.024-1.35 2.528s-2.39.686-2.39.686c-.36.04-.94.07-1.3.07h-.74c-.36 0-.6-.284-.53-.63l1.01-5.12a.828.828 0 0 1 .78-.632h1.66zM53 17.182c.068-.346.418-.63.778-.63h2.04c.36 0 .6.284.53.63l-.55 2.79c-.07.35.17.632.53.632H58c.36 0 .946.03 1.303.067 0 0 2.443.03 3.235.9.645.72.926 1.69.64 3.14L61.9 31.17a.828.828 0 0 1-.78.632h-2.09c-.36 0-.6-.29-.53-.635l1.085-5.484c.07-.345.15-.92.176-1.272 0 0 .05-.65-.21-.92-.26-.28-.82-.42-1.68-.42h-2.03c-.36 0-.71.28-.78.63l-1.47 7.47c-.07.35-.42.63-.78.63h-2.04c-.36 0-.6-.28-.53-.63L53 17.18m10.35 18.04c-.07.35.17.632.53.632h2.066a.83.83 0 0 0 .78-.63l.55-2.795c.068-.347.42-.63.778-.63h2.24c1.275 0 2.324-.133 3.15-.397.82-.27 1.57-.71 2.244-1.33a6.785 6.785 0 0 0 1.374-1.698c.35-.616.598-1.297.746-2.04.357-1.806.034-3.17-.808-4.224-1.05-1.307-3.63-1.417-3.63-1.417-.356-.05-.942-.09-1.3-.09h-5.184c-.36 0-.71.288-.778.63l-2.76 13.98zm8.1-12.21c1.28 0 2.135.234 2.563.7.428.465.53 1.265.306 2.4-.24 1.18-.68 2.022-1.35 2.526s-2.39.686-2.39.686c-.36.04-.95.07-1.31.07h-.75c-.36 0-.6-.287-.53-.63l1.01-5.12c.07-.35.42-.635.78-.635h1.66z"/><g transform="matrix(1 0 0 -1 21.37 33.388)"><mask id="prefix__q" fill="#fff"><use xlink:href="#prefix__p"/></mask><path fill="#FFF" fill-rule="nonzero" d="M.03 25.464s6.12 4.14 9.985 5.557c1.232.46 10.12 2.77 11.56-12.33.788-8.26-.63-13.97-7.52-15.01C9.93 3.06 10.568.03 10.568.03" mask="url(#prefix__q)"/></g><path fill="currentColor" fill-rule="nonzero" stroke="currentColor" d="M31.105 1.684c-3.91 1.436-9.9 5.472-10.153 5.644a.708.708 0 0 0-.18 1.02c.247.33.73.407 1.077.172.06-.04 6.08-4.1 9.81-5.47.11-.043 2.86-1.02 5.49.532 2.74 1.616 4.47 5.483 5.02 11.187.87 9.11-1.19 13.36-6.88 14.22-1.61.24-2.79.85-3.49 1.81-.93 1.26-.65 2.64-.64 2.7.08.39.48.64.9.57.41-.08.69-.46.61-.86 0-.01-.16-.86.393-1.6.46-.61 1.28-1.01 2.45-1.19 8.46-1.27 8.81-9.11 8.175-15.8-.6-6.27-2.534-10.41-5.746-12.3-3.228-1.9-6.5-.79-6.868-.66M25.13 26.92c-.06 3.46-1.227 6.61-3.04 8.22-.827.73-1.747 1.09-2.664 1.05a.502.502 0 0 0-.54.46c-.013.27.205.5.49.51 1.202.06 2.382-.39 3.415-1.31 2.018-1.782 3.308-5.2 3.37-8.92.008-.266-.22-.49-.502-.493a.504.504 0 0 0-.525.48"/><path fill="currentColor" fill-rule="nonzero" stroke="currentColor" d="M27.388 24.472c-.387.874-1.064 1.43-1.86 1.524-.774.09-1.56-.267-2.106-.955a.54.54 0 0 0-.72-.09.468.468 0 0 0-.103.68c.76.98 1.91 1.48 3.05 1.34 1.17-.14 2.15-.91 2.68-2.11.11-.25-.02-.53-.28-.64a.54.54 0 0 0-.68.27"/></g></svg>
