<svg xmlns="http://www.w3.org/2000/svg" viewBox="0 0 256 256" width="256pt" height="256pt"><path d="M109.99 2.02c34.61-.05 69.39 0 104.01-.03 4.64.04 9.15-.36 13.52 1.5 7.44 3.01 12.49 10.44 12.46 18.49.07 29.66-.04 59.36.05 89.02.14 11.34 4.86 22.12 12.87 30.11 2.5 2.39 3.09 5.82.92 8.65-2.32 3.03-6.5 2.15-9.82 2.23-9.04-.12-17.28-3.72-23.8-9.92-6.31 5.98-14.46 9.66-23.2 9.88-10.93.13-21.87 0-32.8.05.02 18.34-.04 36.69.03 55.02.09 14.58 9.18 28.41 22.63 34.09 2.37 1.16 5.55 1.65 6.65 4.38 1.66 3.52-.69 7.82-4.5 8.36-4.98.38-10.02.05-15.01.15-6.59-.12-13.74.47-20.18-.9-7.54-1.58-14.6-5.47-20.02-10.95-1.44-1.43-2.03-3.11-1.69-5.14.72-3.76 4.82-6.25 8.37-4.37 3.41 2.3 6.12 5.25 10.05 6.82 5.27 2.51 10.73 2.66 16.46 2.55-9.33-9.28-14.85-21.81-14.96-35.01-.08-29.33 0-58.68-.03-88.01.05-4.09-1.15-7.97-4.1-10.89-2.92-2.96-6.79-4.16-10.89-4.1H28.99c-4.1-.06-7.98 1.13-10.89 4.1-2.96 2.91-4.16 6.79-4.1 10.89v108.02c-.08 4.34 1.33 8.44 4.61 11.37 2.87 2.64 6.53 3.65 10.38 3.62 27.96.01 56.09-.02 84.04.01 2.99-.12 5.57 1.22 6.49 4.17 1.14 3.77-1.46 7.73-5.49 7.75-27.91.17-56.08 0-84.03.08-4.94.1-9.75-.65-14.14-3.02-8.47-4.4-13.9-13.44-13.84-22.99-.04-36.29 0-72.7-.03-109-.05-4.84.95-9.56 3.36-13.78C9.89 97.1 18.68 91.97 28 92.01c20.65-.03 41.34 0 62-.01-.01-21.67.02-43.33-.01-65 .03-4.13-.26-7.89 1.23-11.83 2.82-7.78 10.47-13.21 18.77-13.15z" fill="currentColor"/><path d="M163.48 20.57c3.33-1.47 7.07.25 8.25 3.66 9.87 26.07 19.66 52.43 29.5 78.55 1.05 2.64 1.1 5.33-1 7.45-2.78 2.9-8.13 2.03-9.66-1.74-2.18-5.41-4.09-10.95-6.11-16.44-16.54-.13-33.1-.01-49.65-.06 8.36-22.32 16.79-44.67 25.12-67 .72-1.92 1.54-3.59 3.55-4.42z" fill="#fff"/><path d="m166 47.04.11.31c4.59 12.21 9.13 24.43 13.69 36.65h-27.6c4.6-12.32 9.17-24.65 13.8-36.96zM80.53 125.19c.85 3.89-.79 8.46-1.14 12.4 13.54.08 27.13-.11 40.66.09 3.77.12 6.24 3.79 5.37 7.37-.75 3.05-3.35 4.63-6.4 4.54-13.6.04-27.23-.01-40.83.01-.21 4.19-.34 8.38-.39 12.58 7.49-1.38 14.43-1.51 21.94-.14 2.26-2.48 4.59-4.22 8.09-2.71 3.18 1.52 3.66 4.3 3.47 7.57 9.79 6.95 16.35 20.69 12.9 32.59-2.63 9.44-9.79 16.49-16.51 23.22-1.97 2.09-4.47 2.95-7.19 1.68-3.46-1.63-4.66-5.99-2.16-9 4.91-5.5 12.19-11.24 14.52-18.57 2-6.73-1.44-12.67-5.58-17.69-4.65 11.98-9.69 23.25-17.87 33.31-3.89 4.64-8.45 8.78-14.19 10.96-6.57 2.54-14.15 2.72-20.72.06-9.02-3.62-15.55-12.73-16.02-22.45-.36-7.02 2.15-13.65 6.29-19.23 5.46-7.33 12.91-12.24 21.22-15.81-.01-5.4.1-10.78.4-16.17-5.79-.07-11.59.12-17.38-.06-3.24-.03-5.72-2.55-5.8-5.77-.11-3.3 2.39-6.08 5.74-6.1 6.14-.2 12.3 0 18.45-.07.77-4.47.79-9.54 2.56-13.73 2.59-4.1 8.96-3.55 10.57 1.12z" fill="currentColor"/><path d="M96.39 173.61c-3.74 9.89-7.83 19.31-13.98 27.99-2.3-8.92-3.55-18.02-4.22-27.2 6.12-1.35 11.98-1.82 18.2-.79zM66.38 178.57c.98 11.24 3 21.75 6.26 32.54-4.2 1.72-8.43 2.67-12.88 1.18-6.63-2.22-10.73-9.51-9.06-16.34 1.66-6.76 7.37-12.58 13.27-15.98.8-.47 1.6-.93 2.41-1.4z" fill="#fff"/><path d="M211.48 242.56c2.52-1.15 5.54-.43 7.24 1.76 2.02 2.56 1.55 6.41-1.04 8.4-2.79 2.19-6.96 1.43-8.8-1.61-1.85-3.03-.62-7.06 2.6-8.55z" fill="currentColor"/></svg>
