<svg aria-hidden="true" xmlns="http://www.w3.org/2000/svg" width="1256" height="1706.667" viewBox="0 0 942 1280"><g fill="currentColor"><path d="M681 1.5c-11.8 2.3-20.3 5.2-30.9 10.6-50.6 25.8-71.8 87.2-47.6 138.5 14.2 30.3 39.8 51.1 72.7 59.1 11.3 2.8 38.5 2.5 49.5-.5 47.9-13 80.3-54.7 80.3-103.5 0-29-12.1-56.4-33.9-76.9C757.2 15.7 739.8 6.4 722 2.5c-10.5-2.3-31.6-2.8-41-1zM609 243.1c-28.3 2.2-52.4 13.3-72.5 33.4-11.6 11.5-12 12.1-68 93.8l-47 68.6-90 .3-90 .3-5.6 2.3c-16.9 6.8-27.4 21.2-28.6 39.4-1.8 25.4 13.6 46.4 37.1 50.7 4 .7 38.5 1.1 106.5 1.1 110.2 0 108.5 0 120.6-6 3.3-1.6 8-4.9 10.5-7.3 3.6-3.5 31.6-42.4 75.1-104.5l4.4-6.4.6 199.4c.3 109.6.7 293.8.8 409.3.2 231.8-.3 217.3 6.5 231 8.9 17.9 26.3 29.2 47.7 31 23.8 2 48.2-11.2 58.1-31.5 7.3-14.9 6.8 4 6.8-263V745h23v237.9c0 266.4-.5 248.2 7.1 264 17 35 67 44.2 95.8 17.5 7.2-6.7 11.4-13.1 14.9-22.6l2.7-7.3.5-415 .5-415 10.3-.3 10.2-.3v148.8c0 164.4-.3 156.2 6.5 169.9 8.6 17.5 28.7 27.7 48.6 24.7 19.9-3.1 35.5-18.8 38.9-39.1.8-4.8 1-55.1.8-178.7l-.4-172-2.2-9.6c-6.5-28.5-17.6-49.3-35.8-67.5-22.5-22.4-49.7-34.6-83.2-37.4-14.1-1.2-196.1-1.1-211.2.1zM154.5 598l-28 28 28.3 28.3 28.2 28.2 28.2-28.2 28.3-28.3-28-28c-15.4-15.4-28.2-28-28.5-28-.3 0-13.1 12.6-28.5 28zM207.5 705l-28 28 28.3 28.3 28.2 28.2 28.2-28.2 28.3-28.3-28-28c-15.4-15.4-28.2-28-28.5-28-.3 0-13.1 12.6-28.5 28z"/><path d="M.3 745.2c.3 1.3 6 31.5 12.6 67.3 18.9 102 61 329.5 74.1 400.6 6.6 35.5 12 64.9 12 65.3 0 .3 58.2.6 129.3.6h129.2l8.3-44.8c18.4-98.3 91.2-486.8 91.7-489l.5-2.2H382.3l-4.6 23.7c-5.9 30.4-37.2 193.6-61.7 321.5-10.5 54.6-19.8 103-20.8 107.6l-1.7 8.2H228c-36 0-65.6-.3-65.7-.7-.3-.9-2.7-13.7-15.3-81.3-11.5-61.9-23.1-124-36.5-195.5-6.4-34.1-15.2-81.4-19.6-105-4.4-23.7-9.5-50.9-11.3-60.5l-3.3-17.5-38.3-.3-38.2-.2.5 2.2z"/><path d="M172 866.5V905h79v-77h-79v38.5z"/></g></svg>
